<svg width="200" height="104" viewBox="0 0 200 104" fill="none" xmlns="http://www.w3.org/2000/svg">
<g clip-path="url(#clip0_61_16)">
<path d="M43.4102 87.6128C43.441 87.5512 43.4719 87.4587 43.5027 87.397C43.5643 87.2737 43.5952 87.1196 43.6568 86.9963C43.6877 86.873 43.7493 86.7189 43.7493 86.5647C43.7493 86.4106 43.811 86.2565 43.811 86.0407C43.8418 85.8557 43.8418 85.6399 43.8418 85.3625V83.5129L43.811 82.8348L43.7493 82.3107L43.6568 81.8792C43.441 81.1702 43.071 80.6153 42.5469 80.2454C42.0536 79.8755 41.4062 79.6905 40.6971 79.6905C39.988 79.6905 39.3713 79.8755 38.8472 80.2454C38.3539 80.6153 37.984 81.1702 37.7373 81.8792C37.7065 82.0025 37.6448 82.1566 37.6448 82.3107C37.614 82.4649 37.5832 82.619 37.5832 82.8348C37.5523 83.0197 37.5523 83.2663 37.5523 83.5129V88.9692H42.7011L43.4102 89.7398L44.3659 88.6301L43.4102 87.6128ZM40.6971 86.3489C40.5737 86.5031 40.5737 86.688 40.6971 86.8113L41.4987 87.6745H39.0014V83.6054C39.0014 83.3896 39.0322 83.1739 39.0322 83.0197C39.063 82.8656 39.063 82.7115 39.0939 82.5882C39.1247 82.4957 39.1247 82.4032 39.1555 82.3107C39.2789 81.9408 39.4638 81.6326 39.7105 81.4476C39.9571 81.2626 40.2963 81.1393 40.6971 81.1393C41.0979 81.1393 41.437 81.2318 41.6837 81.4476C41.9303 81.6326 42.1153 81.9408 42.2386 82.3107C42.2694 82.3724 42.2694 82.4649 42.3003 82.5573C42.3311 82.6806 42.3311 82.8039 42.3619 82.9889C42.3928 83.143 42.3928 83.3588 42.3928 83.5746V85.2392C42.3928 85.455 42.3619 85.6708 42.3619 85.8249C42.3311 85.979 42.3311 86.1332 42.3003 86.2565C42.3003 86.2873 42.3003 86.3181 42.2694 86.3489L41.6528 85.7016C41.5295 85.5783 41.3753 85.5783 41.2212 85.6708L40.6971 86.3489ZM73.9019 79.7213H73.0695C72.8845 79.7213 72.7612 79.8446 72.7612 80.0604V85.6399C72.7612 86.2873 72.607 86.7805 72.3296 87.0888C72.0521 87.397 71.6513 87.5512 71.158 87.5512L69.5548 87.5203V80.0604C69.5548 79.8446 69.4315 79.7213 69.2465 79.7213H68.414C68.229 79.7213 68.1057 79.8446 68.1057 80.0604V89.0617H71.1888C72.1446 89.0617 72.8845 88.7534 73.4395 88.1677C73.9944 87.582 74.2719 86.7189 74.2719 85.6399V80.0604C74.2102 79.8446 74.0869 79.7213 73.9019 79.7213ZM5.36487 80.0604C5.30321 79.8755 5.17989 79.783 5.02573 79.783H4.25496C4.10081 79.783 3.97748 79.8755 3.91582 80.0604L0.956055 88.9692H2.46677L3.11422 86.9346H6.10481L6.75226 88.9692H8.26298L5.36487 80.0604ZM5.61152 85.455H3.57668L4.5941 82.3107L5.61152 85.455ZM14.5525 87.4895H10.4828V80.1529C10.4828 79.9371 10.3595 79.8138 10.1745 79.8138H9.34206C9.15707 79.8138 9.03375 79.9371 9.03375 80.1529V89H14.5525V87.4895ZM17.0189 84.6227H13.8434C13.6584 84.6227 13.5351 84.746 13.5351 84.9618V86.0407H17.3273V84.9618C17.3273 84.746 17.2039 84.6227 17.0189 84.6227ZM19.6396 79.783H18.8071C18.6222 79.783 18.4988 79.9063 18.4988 80.1221V88.9692H19.9787V80.1221C19.9479 79.9371 19.8246 79.783 19.6396 79.783ZM33.6676 79.783H28.0256C27.8406 79.783 27.7173 79.9063 27.7173 80.1221V81.2626H30.1221V88.9692H31.602V81.2626H34.0068V80.1221C33.9759 79.9371 33.8526 79.783 33.6676 79.783ZM35.9799 79.783H35.1475C34.9625 79.783 34.8392 79.9063 34.8392 80.1221V88.9692H36.3191V80.1221C36.2883 79.9371 36.1649 79.783 35.9799 79.783ZM50.7788 87.4895H46.7091V80.1529C46.7091 79.9371 46.5858 79.8138 46.4008 79.8138H45.5684C45.3834 79.8138 45.26 79.9371 45.26 80.1529V89H50.7788V87.4895ZM55.9275 80.0604C55.8659 79.8755 55.7425 79.783 55.5884 79.783H54.8176C54.6635 79.783 54.5401 79.8755 54.4785 80.0604L51.5187 88.9692H53.0294L53.6769 86.9346H56.6675L57.3149 88.9692H58.7948L55.9275 80.0604ZM56.205 85.455H54.1702L55.1876 82.3107L56.205 85.455ZM64.9918 87.4895H61.0763V80.1529C61.0763 79.9371 60.953 79.8138 60.768 79.8138H59.9355C59.7506 79.8138 59.6272 79.9371 59.6272 80.1529V89H64.9918V87.4895ZM81.6097 79.783H80.8389C80.6539 79.783 80.5306 79.9063 80.5306 80.1221V86.0099L77.2008 80.0296C77.1704 79.9566 77.119 79.8942 77.0532 79.8503C76.9874 79.8064 76.91 79.783 76.8309 79.783H76.0601C75.8751 79.783 75.7518 79.9063 75.7518 80.1221V88.9692H77.1392V82.7731L80.6231 88.9692H81.9488V80.1221C81.918 79.9371 81.7946 79.783 81.6097 79.783ZM84.6619 79.783H83.8295C83.6445 79.783 83.5212 79.9063 83.5212 80.1221V88.9692H85.0011V80.1221C85.0011 79.9371 84.8777 79.783 84.6619 79.783ZM92.1538 79.783H91.3214C91.1672 79.783 91.0131 79.8755 90.9823 80.0604L89.1632 86.2256L87.2825 80.0604C87.2209 79.8755 87.0976 79.783 86.9126 79.783H86.111C85.9568 79.783 85.8952 79.8755 85.8643 79.9063C85.8335 79.9679 85.8027 80.0604 85.8335 80.2145L88.5466 88.9692H89.749L92.4313 80.2145C92.493 80.0604 92.4313 79.9679 92.4005 79.9063C92.3696 79.8755 92.2771 79.783 92.1538 79.783ZM98.4742 79.783H93.6029C93.4179 79.783 93.2946 79.9063 93.2946 80.1221V88.9692H98.8133V87.4587H94.7745V85.0543H98.1967V83.9137C98.1967 83.6979 98.0734 83.5746 97.8884 83.5746H94.7436V81.2626H98.7825V80.1221C98.7825 79.9371 98.6591 79.783 98.4742 79.783ZM104.455 85.0234H105.966V82.5265C105.966 82.1258 105.904 81.7559 105.75 81.4168C105.627 81.0777 105.411 80.7694 105.195 80.5536C104.949 80.307 104.671 80.1221 104.332 79.9988C103.993 79.8755 103.623 79.8138 103.222 79.8138H100.293C100.108 79.8138 99.9849 79.9371 99.9849 80.1529V89H101.465V85.3009H103.006L104.671 89H106.336L104.455 85.0234ZM101.434 81.2935H103.191C103.623 81.2935 103.931 81.4168 104.147 81.6325C104.363 81.8483 104.486 82.1566 104.486 82.5573V83.7904H101.434V81.2935ZM110.437 83.6362L110.067 83.5746C109.512 83.4821 109.111 83.328 108.895 83.143C108.679 82.9581 108.587 82.7115 108.587 82.434C108.587 82.0949 108.679 81.8175 108.895 81.6017C109.111 81.3859 109.45 81.2626 109.882 81.2626C110.19 81.2626 110.498 81.3243 110.776 81.4168C111.053 81.5092 111.608 81.8175 111.916 82.0333L112.471 81.1085C112.533 81.016 112.533 80.9235 112.533 80.8619C112.533 80.8002 112.502 80.7078 112.41 80.6461C112.101 80.3995 111.731 80.1837 111.3 80.0604C110.868 79.9063 110.406 79.8446 109.912 79.8446C109.512 79.8446 109.111 79.9063 108.803 80.0296C108.463 80.1529 108.155 80.3379 107.939 80.5845C107.693 80.8311 107.508 81.1085 107.384 81.4476C107.261 81.7867 107.199 82.1566 107.199 82.5573C107.199 84.0062 108.032 84.8693 109.666 85.1159L110.067 85.1776C110.375 85.2084 110.622 85.27 110.807 85.3625C110.992 85.4242 111.146 85.5166 111.238 85.6399C111.331 85.7324 111.423 85.8249 111.454 85.9482C111.485 86.0715 111.516 86.2256 111.516 86.3798C111.516 86.7497 111.392 87.0271 111.146 87.2737C110.868 87.5203 110.498 87.6128 110.005 87.6128C109.573 87.6128 109.172 87.5203 108.833 87.3662C108.463 87.1813 107.908 86.8113 107.662 86.5956L106.768 87.7361C106.922 87.8903 107.292 88.2293 107.569 88.3835C107.785 88.5068 108.001 88.6301 108.248 88.7226C108.494 88.815 108.772 88.9075 109.049 88.9692C109.333 89.032 109.622 89.063 109.912 89.0617C110.406 89.0617 110.837 89 111.207 88.8459C111.566 88.7255 111.893 88.5252 112.163 88.2602C112.441 88.0136 112.626 87.7053 112.749 87.3662C112.872 87.0271 112.934 86.6572 112.934 86.2565C112.934 85.4858 112.718 84.9001 112.286 84.4686C111.886 84.0062 111.238 83.7287 110.437 83.6362ZM24.7267 83.6054L24.3567 83.5438C23.8017 83.4513 23.4009 83.2972 23.1851 83.1122C22.9693 82.9272 22.8768 82.6806 22.8768 82.4032C22.8768 82.0641 22.9693 81.7867 23.1851 81.5709C23.4009 81.3551 23.7401 81.2318 24.1717 81.2318C24.48 81.2318 24.7883 81.2935 25.0658 81.3859C25.3433 81.4784 25.8982 81.7867 26.2066 82.0025L26.7615 81.0777C26.8232 80.9852 26.8232 80.8927 26.8232 80.8311C26.8232 80.7694 26.7923 80.6769 26.6998 80.6153C26.3915 80.3687 26.0216 80.1529 25.5899 80.0296C25.1583 79.8755 24.6958 79.8138 24.2025 79.8138C23.8017 79.8138 23.4009 79.8755 23.0926 79.9988C22.7535 80.1221 22.4452 80.307 22.2294 80.5536C21.9827 80.8002 21.7977 81.0777 21.6744 81.4168C21.5511 81.7559 21.4894 82.1258 21.4894 82.5265C21.4894 83.9753 22.3219 84.8385 23.9559 85.0851L24.3567 85.1467C24.665 85.1776 24.9117 85.2392 25.0966 85.3317C25.2816 85.3933 25.4358 85.4858 25.5283 85.6091C25.6208 85.7016 25.7133 85.7941 25.7441 85.9174C25.7749 86.0407 25.8058 86.1948 25.8058 86.3489C25.8058 86.7189 25.6824 86.9963 25.4358 87.2429C25.1583 87.4895 24.7883 87.582 24.295 87.582C23.8634 87.582 23.4626 87.4895 23.1235 87.3354C22.7535 87.1504 22.1985 86.7805 21.9519 86.5647L21.0578 87.7053C21.212 87.8594 21.5819 88.1985 21.8594 88.3526C22.0752 88.476 22.291 88.5993 22.5377 88.6917C22.7843 88.7842 23.0618 88.8767 23.3393 88.9383C23.6227 89.0012 23.9122 89.0322 24.2025 89.0308C24.6958 89.0308 25.1275 88.9692 25.4974 88.815C25.8563 88.6946 26.1831 88.4944 26.4532 88.2293C26.7307 87.9827 26.9157 87.6745 27.039 87.3354C27.1623 86.9963 27.224 86.6264 27.224 86.2256C27.224 85.455 27.0082 84.8693 26.5765 84.4377C26.1449 84.0062 25.5283 83.7287 24.7267 83.6054ZM115.493 79.783H114.66C114.475 79.783 114.352 79.9063 114.352 80.1221V88.9692H115.832V80.1221C115.801 79.9371 115.678 79.783 115.493 79.783ZM122.615 79.783H116.973C116.788 79.783 116.664 79.9063 116.664 80.1221V81.2626H119.069V88.9692H120.549V81.2626H122.954V80.1221C122.953 80.0324 122.917 79.9466 122.854 79.8832C122.79 79.8198 122.704 79.7838 122.615 79.783ZM129.983 79.9063C129.952 79.8446 129.86 79.783 129.737 79.783H128.904C128.75 79.783 128.627 79.8755 128.565 80.0296L126.931 83.4513L125.266 80.0296C125.143 79.8138 124.989 79.783 124.927 79.783H124.095C123.94 79.783 123.879 79.8446 123.848 79.9063C123.817 79.9679 123.786 80.0604 123.817 80.2145L126.191 85.2392V88.9692H127.64V85.2392L130.014 80.2454V80.2145C130.076 80.0604 130.045 79.9679 129.983 79.9063Z" fill="#1C355E"/>
<path d="M124.064 77.7176C123.972 77.7176 123.91 77.656 123.91 77.5327V76.0838C123.91 75.9605 123.972 75.8989 124.064 75.8989H125.113C125.205 75.8989 125.267 75.9605 125.267 76.0838V77.5327C125.267 77.656 125.205 77.7176 125.113 77.7176H124.064Z" fill="#1C355E"/>
<path d="M85.2792 63.3218C85.1867 63.3218 85.125 63.2602 85.125 63.1369V61.688C85.125 61.5647 85.1867 61.5031 85.2792 61.5031H86.3274C86.4199 61.5031 86.4816 61.5647 86.4816 61.688V63.1369C86.4816 63.2602 86.4199 63.3218 86.3274 63.3218H85.2792Z" fill="#1C355E"/>
<path d="M83.121 63.3218C83.0285 63.3218 82.9668 63.2602 82.9668 63.1369V61.688C82.9668 61.5647 83.0285 61.5031 83.121 61.5031H84.1692C84.2617 61.5031 84.3234 61.5647 84.3234 61.688V63.1369C84.3234 63.2602 84.2617 63.3218 84.1692 63.3218H83.121Z" fill="#1C355E"/>
<path d="M43.1942 64.185C43.1017 64.185 43.04 64.1233 43.04 64V62.5512C43.04 62.4279 43.1017 62.3662 43.1942 62.3662H44.2424C44.3349 62.3662 44.3966 62.4279 44.3966 62.5512V64C44.3966 64.1233 44.3349 64.185 44.2424 64.185H43.1942Z" fill="#1C355E"/>
<path d="M41.036 64.185C40.9435 64.185 40.8818 64.1233 40.8818 64V62.5512C40.8818 62.4279 40.9435 62.3662 41.036 62.3662H42.0842C42.1767 62.3662 42.2384 62.4279 42.2384 62.5512V64C42.2384 64.1233 42.1767 64.185 42.0842 64.185H41.036Z" fill="#1C355E"/>
<path d="M33.9764 64.2158C33.8839 64.2158 33.8223 64.1541 33.8223 64.0308V62.582C33.8223 62.4587 33.8839 62.397 33.9764 62.397H35.0247C35.1172 62.397 35.1788 62.4587 35.1788 62.582V64.0308C35.1788 64.1541 35.1172 64.2158 35.0247 64.2158H33.9764Z" fill="#1C355E"/>
<path d="M31.8182 64.2158C31.7257 64.2158 31.6641 64.1541 31.6641 64.0308V62.582C31.6641 62.4587 31.7257 62.397 31.8182 62.397H32.8665C32.959 62.397 33.0206 62.4587 33.0206 62.582V64.0308C33.0206 64.1541 32.959 64.2158 32.8665 64.2158H31.8182Z" fill="#1C355E"/>
<path d="M3.11436 68.439C2.86771 69.0247 2.74438 69.6412 2.74438 70.2885C2.74438 70.9051 2.83688 71.4291 3.05269 71.8298C3.26851 72.2306 3.51516 72.5697 3.8543 72.7854C4.19344 73.0321 4.53258 73.1862 4.93338 73.2787C5.33418 73.3711 5.70415 73.4328 6.07412 73.4328H9.21887V60.7324C9.21887 60.5783 9.28053 60.5166 9.43469 60.5166H10.8221C10.9762 60.5166 11.0379 60.5783 11.0379 60.7324V75.1282H5.98163C5.21086 75.1282 4.50175 75.0358 3.88513 74.82C3.29637 74.6173 2.75208 74.3034 2.28192 73.8952C1.85029 73.4944 1.51115 73.0012 1.2645 72.4155C1.01785 71.8298 0.894531 71.1517 0.894531 70.4118C0.894531 69.5795 1.04869 68.7472 1.32616 67.9766M60.9223 66.3736H59.5349C59.3807 66.3736 59.3191 66.4353 59.3191 66.5894V73.4944H57.7467C57.1609 73.4944 56.7293 73.3711 56.3593 73.1245C56.0202 72.8779 55.8352 72.508 55.8352 72.0148V68.439C55.8352 68.2848 55.7735 68.2232 55.6194 68.2232H54.232C54.0778 68.2232 54.0162 68.2848 54.0162 68.439V72.3539C54.0162 72.7854 53.9237 73.0937 53.7695 73.2478C53.6154 73.402 53.3379 73.4944 52.9987 73.4944H52.4746C51.8888 73.4944 51.4572 73.3711 51.0872 73.1245C50.7481 72.8779 50.5631 72.508 50.5631 72.0148V68.439C50.5631 68.2848 50.5014 68.2232 50.3473 68.2232H48.9599C48.8057 68.2232 48.7441 68.2848 48.7441 68.439V72.3539C48.7441 72.7854 48.6516 73.0937 48.4974 73.2478C48.3433 73.402 48.0658 73.4944 47.7267 73.4944H45.476C44.8902 73.4944 44.4278 73.3711 44.0578 73.1245C43.7186 72.8779 43.5337 72.508 43.5337 72.0148V66.5894C43.5337 66.4353 43.472 66.3736 43.3178 66.3736H41.9305C41.7763 66.3736 41.7146 66.4353 41.7146 66.5894V72.3539C41.7146 72.7854 41.6221 73.0937 41.468 73.2478C41.3138 73.402 41.0364 73.4944 40.6972 73.4944H36.1034C35.9493 73.4944 35.8568 73.4944 35.7951 73.5253C36.4117 73.1245 36.8742 72.6005 37.2133 71.9531C37.5525 71.3366 37.7066 70.6276 37.7066 69.9186C37.7066 69.3329 37.6141 68.8089 37.46 68.3465C37.275 67.8533 37.0283 67.4525 36.6892 67.1134C36.3501 66.7744 35.8876 66.4969 35.3635 66.312C34.8393 66.127 34.1919 66.0345 33.4828 66.0345C32.7428 66.0345 32.1262 66.127 31.6021 66.312C31.11 66.4857 30.6588 66.7585 30.2764 67.1134C29.9372 67.4525 29.6598 67.8841 29.5056 68.3465C29.3206 68.8397 29.259 69.3637 29.259 69.9186C29.259 70.6584 29.4131 71.3366 29.7522 71.9531C30.0914 72.5697 30.5539 73.0937 31.1396 73.5253H24.3568V60.8249C24.3568 60.6708 24.2952 60.6091 24.141 60.6091H22.7536C22.5995 60.6091 22.5378 60.6708 22.5378 60.8249V73.5561H18.9923V63.8767C18.9923 63.7226 18.9306 63.6609 18.7764 63.6609H17.4199C17.2657 63.6609 17.2041 63.7226 17.2041 63.8767V73.4944H12.7336V75.1591H30.523L31.9412 75.0974C32.4654 75.0666 32.9895 74.9124 33.452 74.635C33.8528 74.8816 34.3152 75.0358 34.7777 75.0974L36.2267 75.1591H41.0364C42.1771 75.1591 42.917 74.7891 43.287 74.0493C43.472 74.4192 43.7495 74.6967 44.0886 74.8816C44.4278 75.0666 44.8286 75.1591 45.291 75.1591H48.0658C49.2065 75.1591 49.9465 74.7891 50.3165 74.0493C50.5014 74.4192 50.7789 74.6967 51.1181 74.8816C51.4572 75.0666 51.858 75.1591 52.3205 75.1591H53.3379C54.4786 75.1591 55.2186 74.7891 55.5885 74.0493C55.7735 74.4192 56.051 74.6967 56.3901 74.8816C56.7293 75.0666 57.1301 75.1591 57.5925 75.1591H61.1381V66.5894C61.139 66.5608 61.1339 66.5324 61.1234 66.5058C61.1129 66.4793 61.097 66.4551 61.0768 66.4349C61.0566 66.4147 61.0324 66.3988 61.0059 66.3883C60.9793 66.3778 60.9509 66.3728 60.9223 66.3736ZM33.452 73.1245C32.8045 72.8779 32.2187 72.4772 31.7871 71.9531C31.3246 71.4291 31.1088 70.7817 31.1088 70.0111C31.1088 69.2404 31.3246 68.6856 31.7871 68.2848C32.2187 67.8841 32.8045 67.6683 33.4828 67.6683C34.1611 67.6683 34.7468 67.8841 35.1785 68.2848C35.6101 68.6856 35.8568 69.2713 35.8568 70.0111C35.8568 70.7817 35.6409 71.4291 35.1785 71.9531C34.6852 72.4772 34.1302 72.8779 33.452 73.1245ZM69 73.4944H72.5455V60.7633C72.5455 60.6091 72.6072 60.5475 72.7613 60.5475H74.1487C74.3029 60.5475 74.3645 60.6091 74.3645 60.7633V75.1591H62.7413V73.4944H67.181V63.815C67.181 63.6609 67.2426 63.5993 67.3968 63.5993H68.7842C68.9383 63.5993 69 63.6609 69 63.815V73.4944ZM78.5267 75.1899H76.7077V60.7941C76.7077 60.6399 76.7694 60.5783 76.9235 60.5783H78.3109C78.4651 60.5783 78.5267 60.6399 78.5267 60.7941V75.1899ZM113.211 67.1134C112.472 66.3736 111.485 66.0037 110.19 66.0037C108.926 66.0037 107.909 66.3736 107.169 67.1134C106.429 67.8533 106.059 69.0555 106.059 70.6893V71.1208C106.059 71.2441 106.059 71.3983 106.09 71.5524C106.09 71.9223 106.059 72.2306 105.966 72.4772C105.874 72.7238 105.781 72.9396 105.658 73.0937C105.535 73.2478 105.38 73.3403 105.226 73.402C105.072 73.4636 104.918 73.4944 104.764 73.4944H100.201C100.078 73.4944 99.985 73.4944 99.8925 73.4636C100.17 73.2787 100.478 73.0629 100.756 72.7854C101.064 72.508 101.311 72.1998 101.557 71.8298C101.804 71.4908 101.989 71.09 102.143 70.6584C102.297 70.2269 102.359 69.7953 102.359 69.3329C102.359 68.3157 101.989 67.4834 101.249 66.8977C100.509 66.2811 99.3992 66.0037 97.8577 66.0037C97.3644 66.0037 96.9019 66.0345 96.4703 66.0962C96.0387 66.1578 95.607 66.2503 95.2679 66.3736C94.8979 66.4969 94.5896 66.6202 94.3121 66.7435C94.0347 66.8668 93.8188 66.9901 93.6339 67.0826C93.4797 67.1751 93.418 67.2984 93.418 67.5142V68.8089C93.418 68.8705 93.4489 68.963 93.4797 69.0247C93.5105 69.0863 93.603 69.1788 93.7263 69.2404C94.0347 69.4562 94.343 69.7028 94.6513 69.9186C94.9596 70.1344 95.2371 70.4118 95.5145 70.7201C95.7612 71.0284 96.0078 71.3983 96.1928 71.799C96.3778 72.1998 96.532 72.693 96.6553 73.2478C96.3036 73.3554 95.9422 73.4276 95.5762 73.4636C95.2679 73.4944 95.0212 73.4944 94.8363 73.4944H88.8242V65.0789C88.8242 64.9248 88.7626 64.8631 88.6084 64.8631H87.221C87.0669 64.8631 87.0052 64.9248 87.0052 65.0789V66.0037H84.9087C84.3846 66.0037 83.8605 66.0653 83.3672 66.2195C82.8739 66.3736 82.4422 66.6202 82.0723 66.9593C81.7023 67.2984 81.394 67.73 81.1782 68.2848C80.9624 68.8397 80.839 69.5179 80.839 70.3194C80.839 70.9975 80.9315 71.5832 81.1474 72.0764C81.3632 72.5697 81.6098 72.9704 81.9798 73.3095C82.3189 73.6178 82.7505 73.8644 83.213 74.0185C83.7063 74.1726 84.1996 74.2651 84.7854 74.2651C85.2479 74.2651 85.7103 74.2034 86.1111 74.0801C86.5119 73.9568 86.8511 73.7719 87.1285 73.4944V75.2207H94.9904C95.3912 75.2207 95.8845 75.1591 96.4086 75.0666C96.9328 74.9741 97.4261 74.7891 97.9194 74.5425C98.3202 74.7891 98.7826 74.9741 99.2451 75.0666C99.7075 75.1591 100.201 75.2207 100.725 75.2207H104.671C105.072 75.2207 105.504 75.1591 105.997 75.0358C106.46 74.9125 106.86 74.635 107.169 74.1726C107.536 74.5754 107.989 74.8913 108.494 75.0974C109.018 75.2824 109.604 75.3748 110.283 75.3748H114.383V70.7201C114.321 69.0247 113.951 67.8533 113.211 67.1134ZM87.0052 69.8261V72.5697H84.7546C84.0763 72.5697 83.5213 72.3847 83.1514 72.0148C82.7814 71.6449 82.5964 71.0592 82.5964 70.3194C82.5964 69.3329 82.8122 68.6547 83.2439 68.254C83.6755 67.8841 84.1996 67.6991 84.8779 67.6991H86.9744V69.8261H87.0052ZM99.0601 72.1073C98.8134 72.3231 98.5668 72.508 98.3202 72.6621C98.0735 71.6449 97.6727 70.7509 97.1178 70.0111C96.5628 69.2713 95.9153 68.6856 95.2062 68.2848C95.3604 68.1924 95.6995 68.069 96.162 67.9149C96.6553 67.7916 97.2102 67.6991 97.8577 67.6991C98.2277 67.6991 98.5668 67.73 98.8751 67.7916C99.1834 67.8533 99.4609 67.9457 99.7075 68.069C99.9234 68.1924 100.108 68.3773 100.263 68.6239C100.386 68.8397 100.478 69.148 100.478 69.5179C100.478 69.857 100.417 70.1961 100.263 70.5043C100.139 70.8126 99.9542 71.1208 99.7384 71.3983C99.5534 71.6141 99.3376 71.8607 99.0601 72.1073ZM112.502 73.6486H110.19C109.388 73.6486 108.803 73.402 108.433 72.9396C108.063 72.4772 107.878 71.7065 107.878 70.6893C107.878 69.7337 108.063 68.9938 108.433 68.4698C108.803 67.9457 109.388 67.6683 110.19 67.6683C110.992 67.6683 111.577 67.9457 111.947 68.4698C112.317 68.9938 112.502 69.7337 112.502 70.6893V73.6486ZM129.798 69.4254C129.644 68.778 129.398 68.1924 129.028 67.6991C128.658 67.2059 128.164 66.8052 127.517 66.4969C126.9 66.1887 126.068 66.0345 125.081 66.0345C124.218 66.0345 123.509 66.1887 122.892 66.5277C122.307 66.8668 121.813 67.2676 121.412 67.7608C121.32 67.8533 121.351 67.9766 121.474 68.069L122.43 68.8397C122.553 68.9322 122.646 68.9322 122.738 68.8089C123.047 68.4698 123.417 68.1924 123.817 68.0074C124.218 67.7916 124.681 67.6991 125.174 67.6991C125.729 67.6991 126.191 67.7916 126.561 67.9766C126.931 68.1615 127.24 68.4081 127.455 68.7472C127.671 69.0863 127.825 69.4871 127.949 69.9494C128.041 70.4118 128.103 70.9359 128.103 71.4907V73.5253H118.175V60.7941C118.175 60.6399 118.114 60.5783 117.959 60.5783H116.572C116.418 60.5783 116.356 60.6399 116.356 60.7941V75.1899H130.045V71.4599C130.014 70.7509 129.953 70.0728 129.798 69.4254ZM190.813 34.4686C193.773 32.4957 198.675 27.5635 198.243 23.5561C196.609 26.8853 193.279 29.3822 189.826 31.3551C193.002 28.1184 197.349 22.9088 196.486 16.9901C194.852 21.2441 192.539 25.3132 189.179 28.2725C191.09 25.8372 196.239 17.6375 194.513 14C184.955 31.3859 179.59 27.3169 165.901 37.2737C163.373 39.0925 164.391 42.4525 161.184 43.5623C160.722 43.7164 160.229 43.8705 159.735 43.9938L158.04 42.545L158.101 43.4081C156.745 43.069 156.282 42.5758 155.357 41.7744L155.789 42.8841C154.956 42.5758 154.278 42.8224 153.477 42.7916H152.058C152.552 43.0074 153.322 43.254 153.754 43.5314C153.199 43.6856 152.583 43.7472 152.058 43.9322L151.719 44.0555C151.164 43.9322 150.609 43.7781 150.054 43.5931C146.848 42.4834 147.835 39.1541 145.337 37.3046C131.618 27.3169 126.253 31.3859 116.695 14C114.969 17.6375 120.118 25.8372 122.029 28.2725C118.669 25.3132 116.356 21.2441 114.722 16.9901C113.859 22.9088 118.206 28.0875 121.382 31.3551C117.898 29.3822 114.599 26.8853 112.965 23.5561C112.533 27.5635 117.435 32.4957 120.395 34.4686C117.929 33.7287 114.969 32.4649 112.996 31.0777C112.564 34.2219 119.563 37.4587 121.906 38.5068C119.563 38.4143 116.11 38.2293 114.568 37.4279C115.308 39.3083 120.518 40.7571 122.461 41.3428C120.858 41.9285 118.484 41.9593 116.572 41.5277C118.144 43.6239 121.567 43.069 123.91 43.8397C123.047 44.1788 121.258 44.672 119.902 44.5795C120.95 45.4427 123.201 45.8742 124.958 46.1825C123.571 46.8298 122.06 47.2922 120.457 47.6005C123.139 48.3711 126.099 48.6178 128.504 48.4636C127.301 49.0801 125.605 49.6967 124.311 50.0666C125.914 50.5598 128.534 50.4981 130.138 50.2824C129.274 51.0222 127.979 51.6695 126.654 52.1628C128.904 52.5943 131.556 52.9642 133.344 52.4402C132.172 53.2417 130.939 53.8274 129.213 54.4131C131.463 54.6905 133.652 54.5056 135.564 54.2589C134.485 55.1221 133.344 55.7694 131.987 56.2935C134.423 56.7867 136.643 56.1085 138.462 55.3379C137.784 56.0469 135.471 57.5265 134.392 57.8656C135.163 58.4205 138.493 57.8039 139.14 57.5573C138.739 58.0814 137.938 58.5746 137.26 58.9445C138.462 59.4069 141.422 58.5746 142.316 57.9889C141.699 58.7904 140.682 60.0234 139.88 60.5475C140.558 60.6091 141.761 60.1776 142.655 59.7768C142.532 60.2392 142.624 60.7324 142.624 60.7324C142.778 61.1023 143.426 62.9519 143.487 63.4143V63.4451L143.58 64.2466C143.611 64.524 143.611 64.8015 143.611 65.0789C143.611 66.7743 143.333 68.6547 143.21 69.8878C143.179 70.1652 143.148 70.4427 143.148 70.6276C143.117 70.9359 143.117 71.2441 143.117 71.5216C143.117 73.9877 143.642 76.3921 144.659 78.6424C144.936 79.2281 145.245 79.8138 145.584 80.3687C147.958 84.2836 151.904 87.4895 155.696 89.8015C157.515 88.6917 159.396 87.3662 161.092 85.8557C161.246 85.7016 161.4 85.5783 161.554 85.4242C161.955 85.0543 162.356 84.6843 162.726 84.2836L162.88 84.1295C163.219 83.7596 163.558 83.4205 163.867 83.0506L164.36 82.4649C164.761 81.9408 165.131 81.4168 165.501 80.8927C165.778 80.4612 166.056 79.9988 166.302 79.5364C166.456 79.2589 166.611 78.9507 166.734 78.6732C166.981 78.1184 167.227 77.5327 167.412 76.947C167.998 75.1899 168.275 73.3711 168.275 71.5216C168.275 71.2133 168.275 70.9051 168.245 70.6276V70.4118C168.152 69.2096 167.782 67.0518 167.782 65.1097V65.0789C167.782 64.6473 167.813 64.2466 167.844 63.8459C167.844 63.7226 167.875 63.5993 167.905 63.4451V63.4143C167.967 62.9519 168.584 61.1948 168.738 60.8249C168.738 60.8249 169.015 60.3009 168.923 59.8693C169.786 60.2392 170.834 60.5783 171.482 60.5475C170.711 59.9926 169.663 58.7904 169.046 57.9889C169.94 58.5746 172.9 59.4069 174.102 58.9445C173.393 58.5746 172.623 58.0814 172.222 57.5573C172.838 57.8039 176.199 58.4205 176.97 57.8656C175.891 57.5573 173.578 56.0469 172.9 55.3379C174.688 56.0777 176.939 56.7559 179.375 56.2935C178.049 55.7694 176.877 55.1221 175.798 54.2589C177.71 54.5056 179.899 54.6905 182.149 54.4131C180.454 53.8274 179.22 53.2417 178.018 52.4402C179.806 52.9642 182.427 52.5943 184.708 52.1628C183.383 51.6695 182.088 51.0222 181.224 50.2824C182.828 50.4981 185.417 50.5598 187.051 50.0666C185.787 49.6967 184.092 49.0801 182.858 48.4636C185.263 48.6178 188.223 48.402 190.905 47.6005C189.302 47.2922 187.791 46.8298 186.404 46.1825C188.161 45.9051 190.412 45.4427 191.46 44.5795C190.104 44.672 188.316 44.1788 187.452 43.8397C189.765 43.069 193.218 43.5931 194.79 41.5277C192.878 41.9593 190.474 41.9285 188.901 41.3428C190.844 40.7571 196.054 39.3391 196.794 37.4279C195.252 38.1985 191.769 38.3835 189.456 38.5068C191.83 37.4587 198.798 34.2219 198.366 31.0777C196.239 32.4649 193.279 33.7287 190.813 34.4686ZM166.611 74.5117C166.364 75.7756 165.994 76.9778 165.47 78.1492C164.545 80.1837 163.065 82.1874 161.061 84.0986C159.519 85.5783 157.67 86.9963 155.604 88.3218C153.538 87.0271 151.719 85.6091 150.147 84.0986C148.143 82.1874 146.663 80.1529 145.738 78.1492C145.214 76.9778 144.813 75.7756 144.597 74.5117C144.351 73.2787 144.289 71.984 144.351 70.7201C144.382 70.3502 144.443 69.8261 144.505 69.2096C144.721 67.4834 144.998 65.2639 144.721 63.3835C146.971 63.1677 149.16 62.6437 150.702 62.1813C152.552 61.6264 154.34 60.9482 155.604 60.3009C156.837 60.9482 158.625 61.6264 160.506 62.1813C162.048 62.6437 164.237 63.1677 166.487 63.3835C166.241 65.233 166.487 67.4525 166.703 69.2096C166.765 69.8261 166.857 70.3502 166.857 70.7201C166.919 71.984 166.857 73.2478 166.611 74.5117Z" fill="#1C355E"/>
<path fill-rule="evenodd" clip-rule="evenodd" d="M126.037 27.8409C125.42 31.1702 133.93 33.0197 134.669 33.7287C135.841 34.8693 138.277 36.2873 139.726 37.2121C141.884 39.1233 141.822 41.3736 144.659 42.6991C145.584 43.4081 146.755 43.8089 147.803 44.3637C148.204 44.5795 148.574 44.9494 148.975 45.1961C149.53 45.566 149.869 45.7818 150.239 46.1517L150.362 45.9359C150.763 45.2577 151.441 44.857 152.151 44.5795L152.058 44.4871C150.393 44.0863 148.821 43.4698 147.279 42.73C144.72 41.4661 146.293 39.3699 143.795 37.767C138.523 34.1295 132.542 31.0777 126.037 27.8409Z" fill="#FFD040"/>
<path fill-rule="evenodd" clip-rule="evenodd" d="M148.944 62.3354L149.037 62.582C149.191 62.8286 149.376 63.0752 149.592 63.2602C149.684 63.3527 149.807 63.4451 149.931 63.5376L150.486 63.9383L149.807 63.7226L149.252 63.5068C148.913 63.3527 148.574 63.106 148.327 62.8594C148.266 62.7978 148.235 62.7361 148.173 62.6745L148.143 62.6128L148.081 62.582C147.901 62.5234 147.726 62.4512 147.557 62.3662C147.31 62.2121 147.094 62.0271 146.94 61.8113C146.879 61.7471 146.827 61.6744 146.786 61.5956C146.755 61.5339 146.724 61.5031 146.693 61.4414C146.663 61.3489 146.601 61.2565 146.57 61.164C146.539 61.0715 146.508 61.0099 146.508 60.9174C146.478 60.7324 146.478 60.5166 146.508 60.3317C146.508 60.3009 146.508 60.3009 146.539 60.27C146.693 59.7768 147.156 59.5919 147.649 59.5919H147.742L147.773 59.6843C147.773 59.7768 147.803 59.8385 147.834 59.9001C147.988 60.3317 148.358 60.7016 148.636 61.0715L148.79 61.3181C148.913 61.5339 148.975 61.7497 148.975 61.9963C149.006 62.0888 148.975 62.2121 148.944 62.3354Z" fill="#1C355E"/>
<path fill-rule="evenodd" clip-rule="evenodd" d="M146.724 61.1023C146.755 61.1948 146.786 61.2873 146.847 61.3798C146.878 61.4414 146.909 61.4723 146.94 61.5339C146.981 61.6128 147.033 61.6854 147.094 61.7497C147.248 61.9655 147.464 62.1504 147.68 62.2737C147.834 62.3662 147.988 62.4279 148.173 62.4895L148.296 62.5203L148.358 62.6128C148.389 62.6745 148.451 62.7361 148.512 62.767C148.759 63.0136 149.067 63.2293 149.406 63.4143C149.561 63.5068 149.746 63.5684 149.93 63.6301L149.591 63.3527C149.314 63.106 149.129 62.8903 149.006 62.6436C148.944 62.5512 148.913 62.4587 148.882 62.3354C148.913 62.2121 148.944 62.0888 148.944 61.9655C148.944 61.7497 148.882 61.5339 148.759 61.349C148.728 61.2565 148.666 61.1948 148.605 61.1023C148.327 60.7016 147.957 60.3317 147.803 59.9001C147.772 59.8076 147.742 59.746 147.742 59.6535C147.156 59.6535 146.847 59.9001 146.724 60.27V60.3317C146.693 60.4858 146.693 60.6708 146.724 60.8557C146.662 60.9482 146.693 61.0099 146.724 61.1023Z" fill="#FFD040"/>
<path fill-rule="evenodd" clip-rule="evenodd" d="M149.653 60.7016C149.746 60.64 149.838 60.6091 149.931 60.6091H149.962C149.746 60.4858 149.499 60.4242 149.653 60.7016ZM150.208 60.7016L150.301 60.7941V60.8866C150.301 60.9174 150.301 60.9174 150.332 60.9482V60.979C150.393 61.164 150.517 61.349 150.64 61.5031C150.702 61.5647 150.732 61.6264 150.794 61.688L150.825 61.7189C150.917 61.8113 151.01 61.9038 151.133 61.9963C151.195 62.058 151.257 62.0888 151.318 62.1504C151.349 62.1504 151.349 62.1813 151.38 62.1813L151.966 62.582L151.287 62.3662C151.257 62.3662 151.226 62.3354 151.195 62.3354C151.102 62.3046 150.979 62.2429 150.887 62.2121C150.64 62.1196 150.393 61.9655 150.177 61.8422C150.147 61.8113 150.116 61.7805 150.085 61.7805C149.869 61.6264 149.684 61.4414 149.53 61.2565C149.499 61.2257 149.499 61.1948 149.468 61.164C149.253 61.2257 148.913 61.2257 148.759 61.164C148.451 61.0407 147.988 60.2392 147.865 59.931C147.742 59.6535 147.618 59.2836 147.649 58.9753C147.803 58.0506 148.513 57.4032 149.468 57.434H149.622L149.561 57.5882C149.53 57.7115 149.499 57.8348 149.499 57.9581C149.499 58.3896 149.746 58.7287 149.992 59.0678C150.362 59.561 150.702 60.0543 150.239 60.64C150.301 60.6091 150.27 60.64 150.208 60.7016Z" fill="#1C355E"/>
<path fill-rule="evenodd" clip-rule="evenodd" d="M148.019 59.8385C148.266 60.3933 148.667 60.9482 148.852 61.0099C148.975 61.0407 149.376 61.0715 149.561 60.979C149.591 61.0099 149.622 61.0715 149.653 61.1023C149.807 61.2873 149.992 61.4723 150.208 61.6264C150.239 61.6572 150.27 61.688 150.301 61.688C150.516 61.8422 150.732 61.9655 150.979 62.0579C151.071 62.0888 151.164 62.1504 151.287 62.1813C151.318 62.1813 151.349 62.2121 151.349 62.2121C151.318 62.2121 151.318 62.1813 151.287 62.1813C151.226 62.1196 151.164 62.0888 151.102 62.0271C150.979 61.9346 150.886 61.8422 150.794 61.7497L150.578 61.5339C150.424 61.3489 150.331 61.164 150.239 60.979V60.9482C150.239 60.9174 150.239 60.9174 150.208 60.8866C150.208 60.8866 150.208 60.8557 150.177 60.8557C150.085 60.7633 149.992 60.7016 149.869 60.7016C149.746 60.7016 149.653 60.7633 149.561 60.8557C149.222 60.3317 149.653 60.3009 150.054 60.5475C150.085 60.5475 150.085 60.5783 150.116 60.5783L150.208 60.4858C150.64 59.9618 150.301 59.5302 149.931 59.037C149.684 58.6979 149.407 58.328 149.407 57.8656C149.407 57.7423 149.437 57.619 149.468 57.4649C148.543 57.434 147.896 58.0506 147.772 58.9137C147.772 59.1911 147.865 59.4994 148.019 59.8385ZM150.208 58.9445C150.578 59.4686 151.102 59.8385 151.441 59.7768C151.411 59.6843 151.441 58.9137 152.274 59.5302C152.921 58.9753 152.428 58.3896 152.089 57.9581C152.675 58.0814 153.23 59.3761 152.428 59.8385C152.459 59.9618 152.459 60.0543 152.49 60.1776C152.49 60.1776 152.49 60.2084 152.52 60.2084L152.551 60.2392L154.401 59.4994V59.4686C154.339 59.0678 154.185 58.6671 153.754 58.4205C153.784 58.2047 153.569 58.1122 153.692 57.8348C153.63 57.8039 153.569 57.7423 153.507 57.7115L153.322 57.5265C153.075 57.1874 152.952 56.7867 152.644 56.5092C152.49 56.3859 152.305 56.2626 152.058 56.201C151.965 56.1702 151.842 56.1393 151.719 56.1393C151.472 56.4476 151.102 56.5401 150.763 56.6634C150.393 56.7867 150.054 56.8792 149.869 57.3107C149.869 57.3416 149.869 57.3416 149.838 57.3724C149.776 57.5265 149.776 57.6806 149.776 57.8656C149.776 58.2047 149.961 58.6054 150.208 58.9445Z" fill="#FFD040"/>
<path fill-rule="evenodd" clip-rule="evenodd" d="M151.503 60.0543C151.472 59.9926 151.472 59.9618 151.441 59.9001L151.41 59.8385L151.533 59.7152C151.78 59.4686 152.181 59.3144 152.428 59.6843C152.428 59.6843 152.428 59.7152 152.458 59.7152V59.7768C152.489 59.9001 152.489 60.0543 152.551 60.1776V60.2084C152.582 60.3009 152.613 60.3625 152.643 60.4242C152.674 60.4858 152.705 60.5783 152.736 60.64C152.768 60.6739 152.79 60.7169 152.798 60.7633C152.921 60.9482 153.044 61.1332 153.198 61.2873C153.26 61.349 153.322 61.4414 153.383 61.5031L153.784 61.9346L153.26 61.688L152.921 61.5031C152.705 61.3798 152.52 61.2565 152.335 61.1023L152.273 61.0407C152.119 60.9174 151.996 60.7633 151.873 60.6091C151.842 60.5783 151.811 60.5475 151.811 60.5166V60.4858C151.811 60.455 151.78 60.455 151.78 60.4242C151.718 60.3317 151.657 60.2392 151.626 60.1467C151.533 60.1159 151.503 60.0851 151.503 60.0543Z" fill="#1C355E"/>
<path fill-rule="evenodd" clip-rule="evenodd" d="M151.595 60.0234C151.595 60.0543 151.626 60.0851 151.657 60.1159C151.718 60.2084 151.749 60.3009 151.811 60.3933C151.811 60.4242 151.842 60.4242 151.842 60.455V60.4858C151.872 60.5166 151.872 60.5475 151.903 60.5783C152.027 60.7324 152.15 60.8557 152.304 60.979L152.366 61.0407C152.551 61.1948 152.736 61.3181 152.921 61.4414C153.013 61.5031 153.137 61.5647 153.26 61.6264L153.044 61.4106L152.643 60.8866C152.612 60.8557 152.582 60.7941 152.551 60.7633C152.52 60.7016 152.489 60.6091 152.458 60.5475L152.366 60.3009V60.27L152.273 59.8693C152.273 59.8693 152.273 59.8385 152.242 59.8385C152.057 59.561 151.749 59.6535 151.533 59.9001L151.472 59.9618C151.564 59.931 151.564 59.9618 151.595 60.0234ZM159.21 57.9581C158.871 58.3896 158.378 58.9753 159.025 59.5302C159.858 58.8829 159.858 59.6843 159.858 59.7768C160.536 59.9309 161.893 58.2972 161.461 57.2799C161.153 56.5092 160.258 56.725 159.734 56.2318L159.611 56.1085C159.58 56.1085 159.519 56.1085 159.488 56.1393C158.748 56.2626 158.501 56.6326 158.285 57.0333C158.131 57.3416 157.977 57.6498 157.607 57.8348C157.73 58.1122 157.515 58.1739 157.545 58.4205H157.515C157.422 58.4821 157.33 58.5438 157.268 58.6363C157.052 58.8829 156.96 59.1603 156.898 59.4994L158.748 60.2392L158.779 60.2084C158.809 60.0851 158.84 59.9926 158.84 59.8693C158.069 59.3761 158.624 58.0814 159.21 57.9581Z" fill="#FFD040"/>
<path fill-rule="evenodd" clip-rule="evenodd" d="M159.765 59.746C159.796 59.7768 159.796 59.7768 159.765 59.746L159.858 59.8385L159.827 59.9001C159.796 59.9618 159.796 59.9926 159.765 60.0543C159.734 60.0851 159.734 60.1159 159.704 60.1467C159.642 60.2392 159.611 60.3317 159.549 60.4242C159.519 60.455 159.519 60.4858 159.488 60.5166C159.457 60.5475 159.426 60.5783 159.426 60.6091C159.303 60.7633 159.149 60.9174 158.995 61.0407L158.902 61.1332C158.717 61.2873 158.532 61.4106 158.347 61.5339C158.251 61.5974 158.147 61.6492 158.039 61.688L157.515 61.9347L157.915 61.5031L158.1 61.3181C158.255 61.164 158.378 60.979 158.501 60.7941C158.501 60.7633 158.532 60.7633 158.532 60.7324C158.596 60.6362 158.647 60.5327 158.686 60.4242C158.717 60.3625 158.748 60.3009 158.748 60.2392V60.2084L158.84 59.8076V59.746C158.84 59.746 158.84 59.7152 158.871 59.7152C159.149 59.3453 159.519 59.4994 159.765 59.746Z" fill="#1C355E"/>
<path fill-rule="evenodd" clip-rule="evenodd" d="M159.704 59.8385C159.457 59.6227 159.18 59.4994 158.995 59.7768C158.995 59.7768 158.995 59.8076 158.964 59.8076C158.933 59.9309 158.933 60.0851 158.872 60.2084V60.2392C158.841 60.3009 158.841 60.3625 158.81 60.455C158.779 60.5783 158.717 60.6708 158.656 60.7941C158.656 60.8249 158.625 60.8249 158.625 60.8557C158.532 61.0407 158.378 61.1948 158.224 61.3798C158.162 61.4414 158.101 61.5031 158.039 61.5956C158.132 61.5339 158.255 61.5031 158.347 61.4414L158.902 61.0715L158.995 60.979C159.149 60.8557 159.272 60.7016 159.396 60.5475C159.426 60.5166 159.426 60.4858 159.457 60.455C159.488 60.4242 159.488 60.3933 159.519 60.3625C159.581 60.27 159.611 60.1776 159.673 60.0851C159.704 60.0543 159.704 60.0234 159.735 59.9926C159.766 59.9309 159.766 59.9001 159.796 59.8385C159.735 59.8693 159.735 59.8693 159.704 59.8385Z" fill="#FFD040"/>
<path fill-rule="evenodd" clip-rule="evenodd" d="M161.739 61.1023C161.708 61.1332 161.677 61.164 161.677 61.1948C161.523 61.4106 161.307 61.5647 161.091 61.7189C161.06 61.7189 161.06 61.7497 161.029 61.7497C160.783 61.9038 160.536 62.0579 160.289 62.1504C160.166 62.1813 160.074 62.2429 159.95 62.2737H159.919L159.241 62.4895L159.827 62.0579L159.858 62.0271C159.919 61.9655 159.981 61.9346 160.043 61.873L160.382 61.5956L160.567 61.4106C160.69 61.2565 160.814 61.0715 160.875 60.8866V60.8557C160.875 60.8249 160.906 60.8249 160.906 60.7941V60.7016L160.999 60.6091L160.906 60.5166C159.981 59.4069 161.985 58.6979 161.584 57.434L161.523 57.2799H161.677C161.985 57.2799 162.293 57.3416 162.571 57.4649C163.095 57.7423 163.403 58.2355 163.496 58.8212C163.527 58.9445 163.496 59.037 163.496 59.1603C163.403 59.6227 162.848 60.8249 162.417 60.979C162.293 61.164 161.954 61.164 161.739 61.1023ZM161.307 60.6091C161.417 60.6066 161.525 60.639 161.615 60.7016C161.769 60.4242 161.523 60.4858 161.307 60.6091Z" fill="#1C355E"/>
<path fill-rule="evenodd" clip-rule="evenodd" d="M161.739 57.4957C162.171 58.8212 160.198 59.4994 161.061 60.5475L161.122 60.6091L161.153 60.5783C161.554 60.3009 162.017 60.3317 161.677 60.8557C161.554 60.7633 161.431 60.7016 161.277 60.7016C161.184 60.7016 161.122 60.7633 161.03 60.8557C161.03 60.8557 161.03 60.8866 160.999 60.8866C160.999 60.9174 160.968 60.9482 160.968 60.9482V60.979C160.907 61.164 160.783 61.3489 160.629 61.5339L160.444 61.7189C160.352 61.8113 160.228 61.9038 160.105 62.0271C160.043 62.0888 159.982 62.1196 159.889 62.1813L159.858 62.2121H159.889C160.013 62.1813 160.105 62.1196 160.198 62.0888C160.475 61.9655 160.722 61.8422 160.937 61.688C160.968 61.688 160.968 61.6572 160.999 61.6572C161.215 61.5031 161.4 61.3181 161.554 61.1332C161.585 61.0715 161.647 61.0407 161.677 60.979C161.893 61.0715 162.294 61.0407 162.387 61.0099C162.633 60.9174 163.281 59.9309 163.404 59.2528C163.435 59.1295 163.435 59.037 163.404 58.9445C163.311 58.3588 163.003 57.9272 162.541 57.6806C162.356 57.5573 162.078 57.4957 161.739 57.4957Z" fill="#FFD040"/>
<path fill-rule="evenodd" clip-rule="evenodd" d="M163.064 62.6128L163.033 62.6745C162.972 62.7361 162.941 62.7978 162.879 62.8594C162.602 63.1369 162.293 63.3527 161.954 63.5068C161.785 63.5918 161.61 63.6639 161.43 63.7226L160.752 63.9383L161.307 63.5376C161.43 63.4451 161.523 63.3835 161.615 63.291C161.842 63.0945 162.04 62.8661 162.201 62.6128C162.232 62.5203 162.293 62.4587 162.324 62.3662C162.293 62.2429 162.263 62.1504 162.263 62.0271C162.263 61.7805 162.324 61.5647 162.448 61.349L162.633 61.0407C162.91 60.64 163.373 60.1776 163.465 59.6535L163.496 59.561H163.712C164.051 59.5919 164.359 59.7152 164.575 59.9618C164.667 60.0851 164.698 60.2084 164.729 60.3317C164.76 60.5475 164.76 60.7324 164.729 60.9482C164.698 61.0407 164.698 61.1023 164.667 61.1948C164.637 61.2873 164.606 61.349 164.575 61.4106C164.544 61.4723 164.513 61.5031 164.482 61.5647C164.421 61.6264 164.39 61.7189 164.328 61.7805C164.143 61.9963 163.928 62.2121 163.681 62.3354C163.527 62.4279 163.373 62.4895 163.188 62.5512L163.064 62.6128Z" fill="#1C355E"/>
<path fill-rule="evenodd" clip-rule="evenodd" d="M163.588 59.6843C163.496 60.2084 163.033 60.64 162.725 61.1023L162.54 61.3798C162.448 61.5647 162.355 61.7805 162.386 61.9963C162.386 62.1196 162.417 62.2121 162.448 62.3354C162.417 62.4279 162.386 62.5512 162.324 62.6436C162.201 62.8594 162.016 63.106 161.739 63.3527C161.646 63.4451 161.523 63.5068 161.399 63.5993C161.579 63.5406 161.755 63.4685 161.924 63.3835C162.294 63.1985 162.602 62.9827 162.818 62.7361C162.879 62.6745 162.91 62.6128 162.972 62.5512L163.033 62.4587L163.157 62.4279C163.311 62.3662 163.496 62.3046 163.619 62.2121C163.866 62.058 164.051 61.873 164.236 61.688C164.298 61.6264 164.328 61.5647 164.39 61.4723C164.421 61.4106 164.452 61.3798 164.483 61.3181C164.513 61.2565 164.544 61.164 164.575 61.1023C164.606 61.0407 164.637 60.9482 164.637 60.8866C164.667 60.7016 164.698 60.4858 164.637 60.3317C164.606 60.2084 164.575 60.1159 164.483 60.0234C164.328 59.8076 164.082 59.6843 163.712 59.6535C163.65 59.6843 163.619 59.6843 163.588 59.6843Z" fill="#FFD040"/>
<path fill-rule="evenodd" clip-rule="evenodd" d="M159.179 46.8607C159.704 47.0148 160.043 46.9531 160.474 47.2306C161.307 47.7546 161.368 49.1418 162.324 49.0185C162.355 49.0185 162.386 48.9877 162.417 48.9877C162.663 48.8644 162.694 48.4945 163.033 48.6486V48.5253C163.187 46.9531 161.368 46.4599 160.628 45.4427C160.351 45.0419 159.981 44.6412 159.611 44.2404C159.21 43.8397 158.748 43.4698 158.347 43.1307C158.378 43.2848 158.316 43.5623 158.285 43.6856C157.422 43.5314 156.435 43.0382 155.973 42.6375C156.065 42.9149 156.435 43.3157 156.405 43.5314C155.264 42.6375 154.493 43.0382 153.445 43.0382C153.753 43.1615 154.154 43.5623 154.431 43.5314C153.753 43.8397 152.828 43.9014 152.088 44.148C152.113 44.203 152.157 44.247 152.212 44.2713C152.335 44.3946 152.489 44.4562 152.643 44.6412C151.749 44.9186 151.009 45.3194 150.547 46.0592C150.948 45.9975 151.348 46.1208 151.657 46.3366C151.41 46.4599 151.194 46.6141 151.04 46.7682C150.917 46.8915 150.793 47.0148 150.701 47.1381C150.608 47.2922 150.485 47.4464 150.393 47.6313V47.6621C150.608 47.6005 150.886 47.5388 151.133 47.5697C151.379 47.5697 151.595 47.6313 151.718 47.7854C151.441 48.1245 150.978 48.6486 150.917 49.0185C151.256 48.7411 152.242 48.7102 152.52 48.9568C152.15 49.1726 151.996 49.2651 151.78 49.6042C152.366 49.5734 153.383 49.4192 153.815 49.6042C153.599 50.0049 153.229 50.2824 153.013 50.7139C153.537 50.5598 154 50.529 154.431 50.5598C154.216 50.8372 154 50.9297 153.938 51.2996C154.277 51.1455 154.678 51.053 155.11 51.053C155.48 50.1282 156.836 50.1899 157.638 50.0974C156.59 49.82 155.88 49.8508 154.863 49.8816C156.035 49.4192 157.915 49.7275 158.84 50.0049C158.902 50.0358 158.933 50.0358 158.994 50.0666C158.933 50.0358 158.871 50.0049 158.84 49.9741C158.409 49.7275 157.946 49.5734 157.299 49.3884C158.1 49.3576 158.779 49.635 159.364 49.9741C159.488 50.0358 159.611 50.1282 159.734 50.2207L160.351 50.6523C160.382 50.1282 160.135 49.8508 159.981 49.3576C160.104 49.3268 160.228 49.3268 160.351 49.3268C160.567 49.3268 160.813 49.3884 161.029 49.4192C161.523 49.5117 161.985 49.5734 162.262 49.1418C162.232 49.1418 162.232 49.1418 162.201 49.111C161.985 49.0493 161.738 48.9568 161.584 48.8335C160.135 49.6042 159.303 48.4328 160.043 47.1689C159.673 47.2306 159.241 47.2306 159.179 46.8607ZM155.973 47.5388C155.295 47.9088 154.771 48.2787 155.85 48.2787C155.295 48.4636 154.339 48.6794 155.418 48.9568C154.709 49.0185 154.401 48.7411 155.171 48.3403C154.771 48.1245 155.326 47.6313 155.973 47.5388ZM157.206 48.3095C156.929 48.0012 157.052 47.5697 158.131 47.9704C157.206 47.8779 156.929 48.1554 158.008 48.4636C157.299 48.4328 156.281 48.5869 157.391 48.7719C157.021 49.0801 156.004 48.4945 157.206 48.3095ZM157.915 46.3983C157.206 46.3674 156.189 46.5216 157.299 46.7065C156.929 47.0148 155.911 46.4599 157.114 46.2441C156.836 45.9359 156.96 45.5043 158.039 45.9051C157.114 45.8126 156.805 46.09 157.915 46.3983ZM154.586 46.3674C153.63 46.6757 153.568 47.0456 154.462 47.1073C153.414 47.2922 153.229 47.6005 153.784 48.0012C153.445 48.0629 152.921 47.5388 153.568 47.0456C153.476 46.6449 153.63 46.3983 154.586 46.3674ZM156.405 45.0728C155.85 45.2577 154.894 45.4735 155.973 45.7509C155.264 45.8126 154.956 45.5351 155.726 45.1344C155.326 44.9186 155.85 44.4254 156.528 44.3329C155.85 44.7028 155.326 45.1036 156.405 45.0728ZM154.401 45.1036C153.352 45.2885 153.167 45.5968 153.722 45.9975C153.383 46.0592 152.859 45.5351 153.507 45.0419C153.445 44.6104 153.568 44.3637 154.524 44.3637C153.568 44.6412 153.506 45.0419 154.401 45.1036Z" fill="white"/>
<path fill-rule="evenodd" clip-rule="evenodd" d="M161.214 48.8027C161.245 48.7719 160.844 48.8335 160.443 48.6794C160.289 48.6178 160.135 48.5561 160.012 48.4328C160.135 48.8027 160.474 49.111 160.813 49.0493C160.937 49.0185 161.091 48.926 161.214 48.8027Z" fill="#F88D2B"/>
<path fill-rule="evenodd" clip-rule="evenodd" d="M162.663 49.0802C162.324 49.7275 161.646 49.8508 160.998 49.82C160.782 49.82 160.567 49.7583 160.351 49.7275C160.289 49.7275 160.258 49.6967 160.228 49.6967C160.258 50.0049 160.443 50.4365 160.598 50.7139V50.7448C160.721 50.9605 160.844 51.2688 161.06 51.4846C161.368 51.7928 161.769 52.1319 162.262 52.4094C162.509 52.0703 162.478 51.762 162.386 51.5154L162.201 51.0838C162.139 50.9297 162.139 50.8064 162.232 50.6523L162.355 50.529C162.17 50.4982 162.047 50.4982 161.985 50.5598C161.954 50.5906 161.923 50.6523 161.923 50.7448C161.923 50.8681 161.954 51.0222 161.985 51.2072C162.047 51.4538 162.108 51.7312 162.047 51.947C162.047 51.947 161.584 51.8853 160.967 50.5906L160.844 50.3132L160.875 50.2824C160.967 50.2515 161.214 50.1282 161.553 50.0666C161.646 50.0358 161.738 50.0358 161.831 50.0049C161.954 49.9741 162.108 49.9741 162.262 49.9433C162.817 49.9125 163.372 50.0358 163.866 50.2207C164.39 50.4057 164.606 50.6215 164.636 50.8064C164.698 51.053 164.482 51.2996 164.297 51.4538L164.236 51.5154C164.143 51.5771 164.081 51.6387 164.081 51.6695C164.636 51.762 165.037 51.6695 165.315 51.4538C165.438 51.3613 165.53 51.2688 165.592 51.1455C165.715 50.9297 165.746 50.6831 165.685 50.4365L165.654 50.3132C165.5 49.7275 164.328 49.0801 163.187 48.8952C163.126 48.8952 163.033 48.8644 162.971 48.8644C162.879 48.7719 162.817 48.8027 162.663 49.0802ZM163.187 49.3268C163.28 49.2959 163.526 49.2343 163.526 49.0802L164.081 49.2651C164.112 49.2959 164.112 49.2959 164.112 49.3268C164.081 49.3884 163.927 49.4192 163.804 49.4192L163.187 49.3268Z" fill="#FFD040"/>
<path fill-rule="evenodd" clip-rule="evenodd" d="M152.305 51.0222C151.472 50.6831 151.657 50.344 152.644 50.344C151.719 50.0666 151.534 50.2824 151.472 50.7139C150.702 50.9914 151.041 51.6695 151.38 51.7004C150.979 51.1455 151.226 50.8989 152.305 51.0222ZM151.688 52.7485C150.887 53.6116 150.979 52.9026 151.195 52.0703C150.733 52.656 150.702 53.4883 151.195 53.3033C150.918 54.2281 151.38 54.1973 151.873 53.5808C150.825 54.2281 151.411 53.3033 151.688 52.7485ZM152.089 54.2898C151.719 55.0296 151.072 55.2762 150.702 54.074C150.27 55.492 152.274 55.5536 152.089 54.2898ZM152.367 51.2996C151.688 53.0875 154.001 52.6868 153.754 51.7312C153.723 51.6387 153.692 51.5771 153.631 51.4846C153.631 51.4538 153.6 51.4229 153.569 51.4229C153.446 52.6252 152.397 52.5019 152.367 51.2996ZM154.463 52.1319C154.278 53.0567 155.696 53.3033 155.727 51.947C154.987 53.0567 154.833 52.471 154.463 52.1319ZM156.066 51.053C156.251 51.7928 157.669 52.2861 157.392 50.8064C157.022 51.8237 156.621 51.5771 156.066 51.053ZM158.255 51.2072C158.44 51.7312 158.286 52.6868 157.639 51.9778C157.423 52.9334 159.334 52.5635 158.255 51.2072ZM156.035 51.8545C155.974 52.6252 157.145 53.5499 157.361 52.0395C156.714 52.8718 156.405 52.5019 156.035 51.8545ZM158.039 52.7793C158.163 54.598 157.577 54.598 156.96 53.2417C156.899 54.4131 157.824 55.3379 158.502 53.9815C158.872 54.0123 159.304 53.3342 158.964 52.9951C158.718 54.1665 158.194 53.18 158.039 52.7793ZM155.203 53.2417C154.802 54.1048 156.128 54.6597 156.498 53.365C155.511 54.2589 155.48 53.6732 155.203 53.2417ZM152.428 52.9026C152.058 54.9988 154.802 53.7657 153.661 52.7485C153.723 53.9815 152.675 54.074 152.428 52.9026ZM154.155 54.6905C154.186 55.1837 153.908 55.7078 153.353 55.5536C153.322 55.307 153.199 55.0604 152.983 54.8446C153.384 56.2318 152.274 56.7867 151.812 55.2762C151.75 55.5536 151.781 55.8002 151.935 56.016C152.367 56.1085 152.613 56.2626 152.798 56.4476C153.045 56.4168 153.261 56.201 153.322 55.7694C153.785 55.7694 154.186 55.7078 154.34 55.1529C154.741 55.3995 155.265 55.8619 155.48 54.9063C155.665 55.1837 156.375 55.4303 156.775 54.3206C156.282 54.7213 155.789 55.2146 155.326 54.1665C155.357 55.307 154.987 55.6153 154.155 54.6905ZM155.141 55.8311C155.542 57.2182 154.432 57.7731 153.97 56.2626C153.692 57.3107 155.296 58.0506 155.48 56.7559C155.943 56.7559 156.344 56.6942 156.498 56.1393C156.899 56.3859 157.423 56.8483 157.639 55.8927C157.824 56.1702 158.533 56.4168 158.934 55.307C158.44 55.7078 157.947 56.201 157.484 55.1529C157.515 56.2318 157.145 56.5401 156.344 55.6461C156.375 56.1393 156.097 56.6634 155.542 56.5092C155.48 56.2626 155.357 56.0469 155.141 55.8311Z" fill="#F88D2B"/>
<path fill-rule="evenodd" clip-rule="evenodd" d="M156.683 56.7867C156.621 56.7559 156.837 58.4513 155.573 57.434C155.419 57.9272 156.837 58.3896 156.991 57.4957L157.454 57.7731L157.516 57.7423C157.886 57.5265 158.04 57.1874 158.225 56.8792C158.162 56.6177 158.058 56.3679 157.916 56.1393C158.04 57.4032 157.978 57.7115 156.961 57.3724C156.991 57.1566 156.93 56.9716 156.683 56.7867ZM155.203 58.5746C155.327 58.4205 155.388 58.2355 155.296 57.9273C155.265 57.8656 154.463 59.3761 154.032 57.8039C153.631 58.1122 154.525 59.3144 155.142 58.6671C155.172 58.7904 155.234 58.8829 155.265 58.9753C155.327 58.9445 155.388 58.9137 155.45 58.852C155.388 58.7904 155.296 58.6979 155.203 58.5746ZM156.714 58.1122C156.436 58.6054 156.221 58.9445 156.005 59.037L156.344 59.2219C156.529 58.9445 156.652 58.5438 156.714 58.1122ZM157.115 58.0197C157.022 58.2355 157.053 58.4205 157.176 58.5129C157.238 58.4513 157.3 58.3896 157.392 58.328C157.3 58.2972 157.176 58.1739 157.115 58.0197ZM153.6 57.619C153.785 57.4649 153.847 57.2182 153.538 57.0025C153.569 57.1874 153.508 57.3416 153.415 57.4032C153.446 57.4957 153.508 57.5573 153.6 57.619ZM159.396 55.6461C159.427 55.7694 159.458 55.8927 159.458 56.016H159.643L159.674 56.0777C159.643 55.8927 159.55 55.7694 159.396 55.6461Z" fill="#F88D2B"/>
<path fill-rule="evenodd" clip-rule="evenodd" d="M163.435 44.3329C164.483 43.7781 165.655 43.3773 166.58 42.6683C169.416 41.3736 169.354 39.0925 171.512 37.1813C172.962 36.2565 175.397 34.8385 176.569 33.6979C177.278 32.9889 185.787 31.1393 185.201 27.8101C178.727 31.0469 172.715 34.0986 167.474 37.7053C164.946 39.3083 166.549 41.4353 163.99 42.6683C162.726 43.2848 161.431 43.8089 160.074 44.2096C160.413 44.5487 160.691 44.8878 160.937 45.2269C161.061 45.4118 161.246 45.566 161.431 45.7201C161.677 45.5351 161.955 45.3502 162.294 45.1036C162.633 44.9186 163.003 44.5487 163.435 44.3329Z" fill="#FFD040"/>
<path fill-rule="evenodd" clip-rule="evenodd" d="M125.081 30.1221C125.543 30.3379 126.252 30.307 126.807 30.3995C126.715 30.3379 126.746 30.2146 126.807 30.0604C126.345 29.8755 125.574 29.6905 125.112 29.6905C125.204 29.2898 125.821 29.6597 126.191 29.6905C126.129 29.2589 125.697 29.2281 125.297 29.3206C124.649 29.4747 124.341 29.783 125.081 30.1221ZM127.455 30.9544C126.776 30.5845 126.807 31.1702 127.362 31.4168C127.763 31.6017 128.226 31.7867 128.565 31.6017C128.195 31.4476 127.825 31.1393 127.455 30.9544ZM127.794 31.8175C127.116 31.5401 126.376 31.6634 125.852 31.5401C126.037 31.3551 126.376 31.3859 126.715 31.4168C126.684 31.3859 126.622 31.2626 126.653 31.1085C126.345 31.1085 126.067 31.1393 125.821 31.1702C125.173 31.2935 124.772 31.6326 125.697 31.8792C126.067 32.0025 127.732 32.3416 127.794 31.8175ZM127.424 32.434L125.944 32.4032C124.495 32.5882 124.587 33.2355 125.913 33.5129C126.869 33.7287 127.979 33.6979 128.842 33.7904C128.935 33.6671 128.996 33.5438 129.089 33.4205C128.071 33.3588 126.653 33.3896 125.204 32.9581C126.16 32.7423 127.455 33.2663 128.349 33.143C128.071 32.9581 127.701 32.7115 127.424 32.434ZM126.098 34.0678C125.389 33.9445 124.68 33.6363 124.248 33.2663C123.077 33.2663 121.874 33.7596 123.354 34.4377C124.125 34.7768 125.266 34.8693 125.852 34.9001C125.821 34.3761 124.988 34.4994 124.495 34.3761C124.125 34.2836 123.848 34.0986 123.57 34.0678C124.526 33.9445 125.512 34.6535 126.098 34.0678ZM127.023 34.0986C125.944 34.2219 126.191 34.8693 127.023 35.1776C127.732 35.455 128.75 35.5166 129.49 35.5475C129.52 35.3317 129.705 35.1467 129.86 35.0543C129.274 34.9001 128.041 34.9001 127.393 34.7152C127.917 34.4994 128.719 34.7152 129.397 34.7152C129.15 34.5919 129.027 34.3761 128.935 34.1295C128.287 34.222 127.578 34.037 127.023 34.0986ZM127.979 32.3416C128.472 33.1739 130.075 33.0506 130.969 33.3896C130.754 32.619 129.705 32.6806 128.873 32.3724C129.058 32.1566 129.582 32.4649 129.921 32.4649C129.49 31.8792 128.411 31.8792 127.979 32.3416ZM129.736 33.5129C128.164 34.4994 131.37 34.8693 132.264 34.746C132.018 34.1603 131.093 34.3761 130.538 34.2219C130.754 33.9753 131.185 34.1295 131.555 34.1295C131.555 33.4513 130.199 33.7596 129.736 33.5129ZM132.85 33.7287C131.278 34.7152 134.484 35.0851 135.378 34.9618C135.132 34.3761 134.207 34.5919 133.652 34.4377C133.868 34.1911 134.299 34.3453 134.669 34.3453C134.669 33.6363 133.282 33.9445 132.85 33.7287ZM135.07 35.5783C134.669 35.5475 134.022 35.5783 134.083 36.0099C134.145 36.2873 134.577 36.4723 134.978 36.5647C135.748 36.7189 136.951 36.349 137.66 36.4723C137.351 35.7941 136.396 36.3181 135.656 36.1023C135.964 35.7633 136.735 36.164 137.012 35.7941C136.704 35.4242 135.717 35.6091 135.07 35.5783ZM138.801 37.0888C138.061 36.8113 137.105 37.397 135.995 37.2121C135.748 37.6128 136.18 37.9827 136.889 38.0136C137.629 38.0444 138.708 37.7361 139.263 37.4279C138.616 37.2737 138.246 37.5203 137.691 37.5203C137.968 37.1813 138.523 37.3662 138.801 37.0888ZM140.095 38.2293C139.448 37.9519 138.77 38.5376 137.968 38.476C137.043 38.9692 137.968 39.3391 138.924 39.1541C139.51 39.0308 140.188 38.6917 140.62 38.6609C140.065 38.1677 139.386 38.7842 138.77 38.7226C138.986 38.476 139.787 38.5684 140.095 38.2293ZM141.606 40.1714C141.329 39.5857 140.496 39.7707 139.787 39.6165C139.91 39.4316 140.373 39.5857 140.62 39.5549C140.219 39.1541 139.355 39.3083 139.078 39.709C139.602 40.3255 140.866 40.0173 141.606 40.1714ZM130.908 36.1332C131.679 36.2873 132.881 35.9174 133.59 36.0407C133.282 35.3625 132.326 35.8866 131.586 35.6708C131.894 35.3317 132.665 35.7324 132.943 35.3625C132.634 34.9926 131.648 35.1776 130.969 35.1159C130.569 35.0851 129.921 35.1159 129.983 35.5475C130.075 35.8866 130.507 36.0407 130.908 36.1332ZM134.299 36.6572C133.621 36.1948 132.449 36.8113 131.37 36.5647C130.969 37.5203 134.392 37.058 134.638 37.0271C134.392 36.7497 133.683 36.9347 133.313 36.9347C133.467 36.6264 133.96 36.7805 134.299 36.6572ZM135.378 37.4895C134.638 37.2121 133.683 37.7978 132.573 37.6128C132.326 38.0136 132.758 38.3835 133.467 38.4143C134.207 38.4451 135.286 38.1369 135.841 37.8286C135.193 37.6745 134.823 37.9211 134.268 37.9211C134.515 37.582 135.101 37.767 135.378 37.4895Z" fill="#F88D2B"/>
<path fill-rule="evenodd" clip-rule="evenodd" d="M136.334 38.291C135.779 38.4451 135.225 38.5376 134.67 38.5993C133.159 38.7226 133.899 39.3699 134.793 39.2158C135.286 39.1233 136.458 38.6917 136.889 38.7842C136.704 38.6301 136.489 38.3218 136.334 38.291ZM137.722 39.2158C136.859 38.8767 135.995 39.6165 134.978 39.524C133.775 40.1714 134.978 40.6646 136.211 40.418C136.982 40.2639 137.845 39.8323 138.4 39.7707C137.691 39.1233 136.828 39.9248 136.026 39.8631C136.334 39.524 137.352 39.6474 137.722 39.2158ZM138.893 39.9248C137.938 40.3564 136.828 40.603 135.841 41.0037C136.211 42.1443 139.294 40.8804 139.88 40.603C139.048 40.0789 138.092 40.942 137.198 41.0345C137.783 40.603 138.585 40.5105 139.263 40.233C139.263 40.0481 138.955 40.0789 138.893 39.9248ZM140.682 41.0345C139.603 40.8496 138.801 41.6819 137.753 41.7744C136.889 43.1615 141.021 42.1443 141.36 41.4661C140.651 40.9112 139.787 41.7435 138.986 41.8052C139.418 41.3428 140.219 41.4353 140.682 41.0345ZM141.699 41.7127C140.959 42.1134 140.219 42.545 139.263 42.6067C138.77 43.0999 138.832 43.254 140.034 43.0691C140.897 42.9149 141.576 42.5142 142.346 42.2367C141.976 41.6202 141.175 42.545 140.558 42.5142C140.897 42.1751 141.668 42.0826 141.884 41.7744C141.822 41.8052 141.822 41.7127 141.699 41.7127ZM143.086 42.545C142.747 42.5758 141.637 42.9457 140.805 43.2848C139.233 43.9322 139.911 44.2404 141.175 43.963C142.1 43.7472 143.179 43.1924 143.765 42.9766C143.611 42.7608 143.302 42.6683 143.086 42.545ZM144.196 43.1307C143.734 43.5006 143.086 43.6548 142.562 43.9322C141.73 44.3946 141.946 44.9803 142.932 45.0419C144.042 45.1344 144.998 44.4254 145.861 44.0863C145.06 43.2848 144.289 44.2713 143.456 44.3021C143.703 43.963 144.566 43.9322 144.875 43.4698C144.628 43.3465 144.443 43.2232 144.196 43.1307ZM146.385 44.2404C145.584 44.7337 144.72 45.1652 143.734 45.3502C143.117 46.1517 143.857 46.2441 144.967 45.9667C145.954 45.7201 147.002 45.1344 147.619 44.9186C147.002 44.3021 146.324 45.1961 145.676 45.2269C146.046 44.9186 146.478 44.7645 146.879 44.5179C146.724 44.3946 146.601 44.3021 146.385 44.2404ZM148.143 45.1344C147.372 45.4118 146.539 46.0592 145.645 46.1825C145.152 47.0456 145.214 47.1381 146.478 46.984C147.464 46.8607 148.235 46.3366 149.098 45.9975C148.574 45.5043 147.711 46.3366 147.002 46.3366C147.495 45.9975 148.05 45.7818 148.698 45.6276C148.574 45.4118 148.266 45.3502 148.143 45.1344ZM149.53 46.2441C148.79 46.4908 148.235 46.9531 147.403 47.0456C147.125 47.693 147.033 48.0937 147.989 48.0321C148.698 47.9704 149.438 47.2614 150.085 47.0765C150.147 46.8915 149.931 46.8607 149.931 46.6757C149.53 46.8915 149.098 47.0456 148.698 47.2306C148.79 46.8607 149.438 46.7065 149.808 46.5216C149.746 46.3983 149.499 46.3983 149.53 46.2441ZM150.794 46.6141C150.147 47.0148 149.715 47.6313 148.944 47.9088C148.821 48.5869 148.852 49.0185 149.746 48.7102C150.147 48.5561 150.517 48.1862 150.856 47.8471C150.702 47.8779 150.578 47.9088 150.486 47.9088L149.869 48.1245L150.178 47.5388C150.362 47.1689 150.547 46.8915 150.794 46.6141ZM128.38 36.3798L130.23 36.349C129.891 36.2565 129.582 36.0099 129.521 35.8557C129.089 35.7324 128.658 35.8249 128.195 35.8866C127.301 36.0407 127.548 36.4414 128.288 36.7497C129.058 37.0888 130.292 37.1196 131.032 37.1504C130.877 36.9347 130.692 36.7189 130.908 36.4723C130.168 36.5647 129.151 36.5956 128.38 36.3798ZM132.141 38.2293C131.525 38.0444 131.032 38.0752 130.168 37.9519C130.785 37.767 131.494 37.8286 132.111 38.0752C132.08 37.9519 132.111 37.767 132.203 37.6437C131.401 37.4279 130.384 37.397 129.582 37.5512C128.627 37.7361 128.596 38.0136 129.49 38.3835C130.6 38.8459 132.296 38.7842 133.344 38.7842C133.005 38.6301 132.388 38.4451 132.141 38.2293ZM131.71 39.0925C130.292 39.1541 130.569 39.9248 131.71 40.2639C132.419 40.4797 133.56 40.4797 134.423 40.5105C134.3 40.4488 134.176 40.2022 134.207 40.0789C133.251 39.8631 132.542 39.9864 131.617 39.7707C132.018 39.6782 132.573 39.7707 133.097 39.7707C133.56 39.8015 134.176 39.9864 134.392 39.5549C134.115 39.5857 133.56 39.3699 133.498 39.0617C132.912 39.185 132.265 39.0617 131.71 39.0925ZM132.573 40.7571C131.833 41.1887 131.309 41.7127 132.851 41.9901C133.899 42.1751 135.04 41.8668 135.872 41.6819C135.656 41.5894 135.533 41.4661 135.379 41.3428C134.824 41.4044 133.745 41.5586 133.097 41.4044C133.775 41.2811 134.577 41.2195 135.348 41.1887C135.317 41.0962 135.379 40.9421 135.44 40.9112C135.07 40.8496 134.885 40.7879 134.67 40.6954C134.176 40.7879 133.313 40.8804 132.573 40.7571ZM134.207 42.3292C133.621 43.0382 133.498 43.2232 134.824 43.254C135.841 43.2848 136.674 42.7916 137.66 42.73C137.444 42.6375 137.29 42.5142 137.198 42.3601C136.334 42.5758 135.594 42.8224 134.67 42.9149C135.44 42.5758 136.334 42.4525 137.136 42.1751C137.044 42.0518 137.167 41.836 137.229 41.7127C136.211 41.9285 135.317 42.3601 134.207 42.3292ZM135.687 43.5931C134.269 44.2096 135.163 44.7028 136.273 44.7028C137.259 44.7028 138.338 44.2404 139.202 44.0247C139.233 43.8089 139.294 43.6548 139.418 43.5931C139.233 43.5314 139.078 43.5314 138.955 43.4698C138.215 43.5931 137.383 43.9014 136.55 43.9014C137.013 43.5931 138.061 43.5623 138.739 43.3465C138.647 43.254 138.493 43.0691 138.616 42.7916C137.722 43.1615 136.581 43.1924 135.687 43.5931ZM139.325 44.2096C138.523 44.3638 137.598 44.9186 136.674 45.1036C136.396 45.9975 137.66 45.9051 138.246 45.8434C139.479 45.6893 140.651 45.1961 141.637 44.8261C141.668 44.6412 141.761 44.3021 141.853 44.148C140.712 44.4871 139.726 45.0419 138.462 45.1652C138.739 44.7953 139.787 44.9495 140.157 44.4562C139.942 44.3946 139.51 44.3021 139.325 44.2096ZM141.668 45.0728C141.267 45.2885 140.373 45.5351 139.726 45.7818C138.523 46.1825 138.77 46.5216 139.911 46.4291C140.897 46.3366 141.792 45.6893 142.624 45.4118C142.223 45.3502 141.946 45.2577 141.668 45.0728ZM141.298 46.275C139.541 47.1381 141.052 47.6005 142.007 47.3539C142.871 47.1073 143.611 46.6449 144.535 46.5216C144.011 46.5832 143.487 46.4908 143.179 46.4291C142.686 46.5524 142.285 46.6757 141.791 46.8915C142.161 46.6141 142.593 46.4291 143.056 46.275C142.994 46.1208 142.994 45.9359 142.994 45.7201C142.47 45.9359 141.822 46.0284 141.298 46.275ZM144.844 46.7374C144.443 46.984 142.716 47.4155 142.624 48.0012C142.562 48.4636 143.179 48.5561 143.641 48.4636C144.412 48.2787 145.522 47.6005 146.169 47.4464C145.676 47.4772 145.275 47.4772 145.152 47.4155C144.72 47.508 144.474 47.7238 144.073 47.8779C144.135 47.6313 144.69 47.3539 144.967 47.2614C144.875 47.1381 144.844 46.9531 144.844 46.7374ZM146.755 47.5697C146.139 47.8779 145.245 48.1245 144.72 48.6178C143.703 49.5734 144.412 49.9433 145.46 49.5734C146.2 49.3268 146.755 48.7719 147.403 48.3712C147.249 48.3403 147.094 48.3095 147.002 48.1862C146.724 48.3712 146.139 48.6794 145.707 48.8952C145.861 48.5869 146.509 48.3403 146.848 48.0012C146.786 47.9088 146.755 47.7238 146.755 47.5697ZM147.619 48.4636C146.94 49.111 146.601 49.1418 146.015 49.9125C145.306 50.8681 146.015 50.8681 146.817 50.4982C147.403 50.2207 147.927 49.6967 148.173 49.2035C147.649 49.0802 147.31 49.8508 146.724 49.9125C147.279 49.3268 148.05 49.0802 148.451 48.1862C148.266 48.3712 147.742 48.4945 147.619 48.4636ZM149.129 49.1726C148.482 49.82 148.112 49.8816 147.588 50.6831C146.909 51.6387 147.619 51.6387 148.389 51.238C148.975 50.9297 149.468 50.4057 149.715 49.9125C149.191 49.82 148.852 50.5906 148.297 50.6523C148.852 50.0358 149.623 49.7583 149.962 48.8952C149.777 49.0493 149.222 49.2035 149.129 49.1726ZM150.301 49.8816C149.993 50.0974 149.623 50.529 149.438 50.8989C148.975 51.8237 149.623 51.9778 150.332 51.4538C150.732 51.1455 151.195 50.4982 151.133 49.9741C150.64 50.3132 150.424 51.2688 149.869 51.2996C150.239 50.8372 150.763 50.2824 150.979 49.7275C150.732 49.82 150.486 49.8816 150.301 49.8816ZM124.218 36.4106C125.174 36.7189 126.314 36.5956 127.147 36.4723C127.116 36.4106 126.993 36.2873 127.085 36.1023C126.376 36.164 125.112 36.1023 124.218 36.164C125.05 35.7941 126.284 36.0407 127.208 35.7941C126.314 35.27 125.143 35.0851 124.249 35.3625C123.262 35.6708 123.262 36.1023 124.218 36.4106ZM127.27 36.6572C126.808 36.873 125.698 36.9963 124.835 36.9655C122.831 37.4895 123.94 38.1985 125.143 38.3218C126.345 38.4451 127.363 38.2294 128.411 38.1677C128.349 38.0444 128.288 37.8594 128.349 37.6745C127.208 37.7978 125.914 37.7053 124.68 37.6745C125.883 37.397 127.548 37.6128 128.658 37.3662C128.072 37.1813 127.578 36.873 127.27 36.6572ZM130.107 39.524C128.966 39.524 127.64 39.6474 126.53 39.4316C127.794 39.185 129.49 39.6165 130.507 39.0308C129.891 39.0308 128.873 38.8767 128.565 38.4451C127.733 38.7226 126.623 38.5684 125.79 38.8459C124.896 39.1233 124.896 39.6165 125.667 40.0173C126.931 40.6646 129.12 40.2639 130.199 40.0173C130.107 39.8705 130.074 39.6942 130.107 39.524ZM130.353 40.2947C129.552 40.2331 128.01 40.4488 127.239 40.8804C126.284 41.4044 126.253 41.836 127.332 42.021C128.688 42.2676 130.045 41.6202 131.278 41.5277C131.371 41.2503 131.525 41.127 131.679 40.9729C130.446 41.0654 128.935 41.3736 127.548 41.4661C128.719 40.942 130.292 41.0345 131.556 40.6646C131.062 40.603 130.631 40.4488 130.353 40.2947ZM131.34 41.836C130.477 41.7744 129.089 42.3292 128.411 42.4525C127.301 42.6991 127.085 43.4698 128.072 43.6239C129.737 43.9014 131.802 43.2232 133.251 42.7608C133.436 42.5758 133.56 42.4217 133.775 42.3601C133.282 42.4217 132.912 42.4217 132.604 42.3292C131.494 42.4217 130.6 42.8224 129.428 42.8533C129.922 42.4525 131.34 42.4217 132.141 42.2059C132.018 42.1443 131.617 41.9901 131.34 41.836ZM132.666 44.148L130.322 44.6104C131.186 44.0555 132.82 43.963 133.991 43.6547C133.652 43.5006 133.375 43.3157 133.251 43.0382C132.203 43.5314 130.6 43.4698 129.675 44.148C128.658 44.9186 129.089 45.1652 130.076 45.2269C131.71 45.3502 133.159 44.7645 134.515 44.4871C134.454 44.1171 134.608 43.9322 134.916 43.7472C134.207 43.6856 133.467 43.9938 132.666 44.148ZM134.608 44.6412C133.467 45.1961 131.987 45.0728 130.939 45.7818C130.107 46.3675 130.107 46.6449 131.093 46.7682C133.005 46.984 134.608 45.9667 136.242 45.5968C136.242 45.5043 136.211 45.2885 136.304 45.1344C136.18 45.0111 134.207 45.9975 131.864 46.2133C132.912 45.7818 134.454 45.4427 135.656 45.0111C135.379 44.9494 134.978 44.857 134.608 44.6412Z" fill="#F88D2B"/>
<path fill-rule="evenodd" clip-rule="evenodd" d="M138.492 46.0592C137.012 46.4291 135.748 47.1073 134.206 47.3539C135.008 46.8607 136.365 46.5832 137.351 46.1825C137.105 46.1517 136.611 46.09 136.395 45.8742C135.47 46.2133 134.145 46.4291 133.312 46.9223C132.326 47.508 132.788 48.0321 133.621 48.1554C135.47 48.402 137.135 46.984 138.677 46.5832C138.492 46.4908 138.399 46.3058 138.492 46.0592ZM138.924 46.7682C137.906 47.0456 137.166 47.693 136.149 47.9704C135.039 48.2787 134.515 49.1418 136.21 49.0493C137.197 48.9877 139.848 48.3095 140.434 47.6005C140.218 47.5388 140.095 47.4464 140.003 47.2922L136.611 48.4945C137.444 47.9088 138.831 47.4772 139.972 47.1073C140.003 46.984 140.033 46.8298 140.126 46.7065C139.725 46.8298 139.263 46.8298 138.924 46.7682ZM140.804 47.7855C140.003 48.3403 138.708 48.5561 137.968 49.2035C137.012 50.0358 137.444 50.4365 138.554 50.4057C139.417 50.3748 140.403 49.8816 141.143 49.5734C141.822 49.3268 142.253 49.1418 142.531 48.6794C142.007 48.4328 141.452 48.8027 140.897 48.9877C140.342 49.1726 139.787 49.4192 139.232 49.5425C140.064 48.9568 141.174 48.6794 142.161 48.3095C142.192 47.9396 142.284 47.7855 142.407 47.6005C142.007 47.7855 141.359 47.9088 140.804 47.7855ZM143.24 48.8027C142.469 49.5734 141.298 49.6658 140.403 50.2515C139.633 50.7756 139.355 51.2688 140.465 51.3305C141.76 51.3921 143.055 50.4365 144.226 50.0974C144.011 50.0358 143.795 49.8816 143.733 49.635C142.901 49.9433 142.315 50.6523 141.267 50.6523C141.976 50.0666 143.117 49.8816 143.764 49.2651C143.826 49.0802 143.918 48.8335 144.041 48.6794C143.795 48.7102 143.517 48.8644 143.24 48.8027ZM144.442 50.2515C143.887 50.6831 142.5 51.1455 142.13 51.5462C141.143 52.6252 142.531 52.9334 142.962 52.7485C143.61 52.471 144.781 51.6387 145.429 50.9914C145.275 50.9605 145.182 50.8681 145.121 50.7756C144.507 51.2701 143.806 51.6464 143.055 51.8853C143.671 51.4538 144.504 51.1147 145.09 50.529C145.121 50.3748 145.213 50.1282 145.398 49.9433C145.059 50.1591 144.72 50.2824 144.442 50.2515ZM145.86 51.1147C145.09 51.4538 144.566 51.947 143.98 52.5943C143.271 53.365 143.178 54.1048 144.535 53.7041C145.306 53.4883 146.755 52.7485 147.001 51.8853C146.261 52.1319 145.521 52.7793 144.566 52.9334C145.244 52.2861 146.323 52.2244 146.909 51.4229C146.94 51.2688 146.97 50.8989 147.155 50.7448C146.816 50.9605 146.323 51.1147 145.86 51.1147ZM148.913 51.7312C148.358 52.4402 147.618 52.8718 146.94 53.4575C147.279 52.7793 148.204 52.2861 148.697 51.5771C148.666 51.5462 148.574 51.4229 148.543 51.3613C148.327 51.5154 147.864 52.0395 147.433 51.947C147.094 52.471 146.354 52.7793 145.984 53.5499C145.367 54.8138 146.323 54.7213 147.186 54.1356C147.988 53.5808 148.635 52.656 149.283 52.0086L148.913 51.7312ZM149.714 52.1319C149.314 52.6868 148.358 53.3033 148.049 54.2589C147.649 55.492 148.358 55.492 149.098 54.8138C149.714 54.2589 150.208 53.18 150.608 52.3169C150.238 52.3477 150.023 52.2861 149.714 52.1319ZM148.697 54.4131L149.868 52.471C149.838 52.6868 150.146 52.4094 150.084 52.5635C149.622 53.2109 149.252 53.9815 148.697 54.4131ZM150.3 54.7522C150.115 54.9679 149.899 55.0912 149.714 55.1529L150.238 54.598L150.3 54.7522ZM150.547 53.2417C150.269 53.5808 149.653 54.6905 149.375 55.1529C148.419 56.6942 149.56 56.3859 150.516 55.3687C150.701 55.1837 150.732 55.1529 150.793 55.0604C150.516 54.783 150.393 54.0123 150.547 53.2417ZM162.787 50.1591C162.91 50.7756 163.002 50.3748 162.725 51.2072C163.187 51.6079 163.681 51.7312 163.897 51.5462C163.897 51.4538 163.927 51.3921 163.989 51.3305C164.02 51.1455 163.927 50.8989 163.65 50.5598C163.557 50.4365 163.465 50.344 163.372 50.2515L162.787 50.1591ZM159.488 51.6079C160.166 52.0395 160.783 51.8853 160.413 51.1455L160.166 50.9605C159.858 50.7139 159.549 50.4982 159.21 50.2824L159.118 50.4673H159.087C159.364 50.8064 159.704 51.1455 159.981 51.4538C159.488 51.4846 159.21 50.7756 158.809 50.3748L158.624 50.3132H158.594C158.655 50.8064 159.118 51.3613 159.488 51.6079ZM169.6 40.1714C170.34 40.0173 171.604 40.3255 172.098 39.7398C171.82 39.3391 170.957 39.185 170.556 39.5857C170.834 39.6165 171.265 39.4624 171.388 39.6474C170.71 39.8015 169.878 39.5857 169.6 40.1714ZM172.283 39.1541C173.238 39.3391 174.163 38.9692 173.238 38.476C172.468 38.5376 171.789 37.9519 171.111 38.2293C171.419 38.5684 172.19 38.476 172.406 38.7226C171.789 38.7534 171.111 38.1677 170.556 38.6609C171.018 38.7226 171.666 39.0617 172.283 39.1541ZM171.913 37.4279C172.468 37.7053 173.547 38.0444 174.287 38.0136C174.996 37.9827 175.427 37.6128 175.181 37.2121C174.071 37.397 173.115 36.8113 172.375 37.0888C172.653 37.3662 173.238 37.1813 173.485 37.5203C172.961 37.5203 172.56 37.2737 171.913 37.4279ZM173.547 36.4723C174.256 36.349 175.458 36.7189 176.229 36.5647C176.63 36.4723 177.061 36.3181 177.123 36.0099C177.185 35.5475 176.537 35.5475 176.136 35.5783C175.489 35.6091 174.472 35.455 174.163 35.8249C174.441 36.1948 175.211 35.7941 175.52 36.1332C174.811 36.3181 173.855 35.7941 173.547 36.4723ZM175.828 34.9618C176.722 35.0851 179.929 34.7152 178.356 33.7287C177.925 33.9753 176.537 33.6363 176.537 34.3453C176.907 34.3453 177.37 34.1911 177.555 34.4377C177.031 34.561 176.106 34.3761 175.828 34.9618ZM163.311 48.0321C164.174 48.0937 164.082 47.6621 163.804 47.0456C163.187 46.984 162.725 46.7065 162.201 46.4599C162.756 46.8915 163.218 47.3847 163.311 48.0321ZM162.108 45.9667C162.972 46.275 163.742 46.8298 164.729 46.9531C165.993 47.1073 166.024 47.0148 165.561 46.1517C164.667 46.0284 163.835 45.381 163.064 45.1036C162.972 45.3194 162.663 45.381 162.509 45.566C163.126 45.7201 163.681 45.9667 164.205 46.275C163.496 46.3366 162.632 45.5043 162.108 45.9667Z" fill="#F88D2B"/>
<path fill-rule="evenodd" clip-rule="evenodd" d="M163.589 44.8878C164.205 45.1036 165.254 45.7201 166.24 45.9359C167.35 46.2133 168.09 46.1208 167.474 45.3194C166.487 45.1344 165.624 44.7028 164.822 44.2096C164.606 44.2713 164.483 44.3946 164.36 44.4871C164.76 44.7337 165.223 44.8878 165.562 45.1961C164.884 45.1652 164.205 44.2713 163.589 44.8878ZM165.315 44.0555C166.179 44.3946 167.134 45.1036 168.244 45.0111C169.231 44.9494 169.447 44.3638 168.614 43.9014C168.09 43.5931 167.474 43.4698 166.98 43.0999C166.734 43.1924 166.549 43.3157 166.271 43.439C166.579 43.9014 167.443 43.9322 167.689 44.2713C166.888 44.2713 166.117 43.254 165.315 44.0555ZM167.443 42.9766C168.029 43.1924 169.108 43.7472 170.033 43.963C171.297 44.2404 171.944 43.9322 170.403 43.2848C169.57 42.9457 168.46 42.5758 168.121 42.545C167.905 42.6683 167.597 42.7608 167.443 42.9766ZM168.83 42.2676C169.601 42.5142 170.31 42.9457 171.142 43.0999C172.345 43.2848 172.407 43.1307 171.913 42.6375C170.957 42.545 170.218 42.1443 169.478 41.7435C169.354 41.7435 169.354 41.836 169.262 41.836C169.478 42.1134 170.248 42.2059 170.587 42.5758C170.002 42.5758 169.2 41.651 168.83 42.2676ZM169.848 41.4661C170.187 42.1443 174.349 43.1615 173.455 41.7744C172.407 41.6819 171.574 40.8496 170.526 41.0345C170.988 41.4353 171.759 41.3736 172.222 41.8052C171.451 41.7435 170.587 40.9112 169.848 41.4661ZM171.327 40.603C171.913 40.8804 174.996 42.1443 175.366 41.0037C174.38 40.603 173.27 40.3564 172.314 39.9248C172.252 40.0481 171.944 40.0481 171.975 40.233C172.653 40.5105 173.455 40.603 174.041 41.0345C173.146 40.9729 172.191 40.0789 171.327 40.603ZM172.776 39.7707C173.331 39.8323 174.195 40.2639 174.965 40.418C176.199 40.6646 177.401 40.1714 176.199 39.524C175.181 39.6165 174.318 38.8767 173.455 39.2158C173.856 39.6474 174.842 39.524 175.12 39.8631C174.349 39.9248 173.486 39.1541 172.776 39.7707ZM174.318 38.7534C174.75 38.6917 175.921 39.0925 176.415 39.185C177.309 39.3391 178.049 38.6917 176.538 38.5684C175.983 38.5376 175.397 38.4143 174.873 38.2602C174.719 38.3218 174.503 38.6301 174.318 38.7534Z" fill="#F88D2B"/>
<path fill-rule="evenodd" clip-rule="evenodd" d="M175.366 37.8286C175.921 38.106 177 38.4451 177.74 38.4143C178.45 38.3835 178.881 38.0136 178.635 37.6128C177.525 37.7978 176.569 37.2121 175.829 37.4895C176.106 37.767 176.692 37.582 176.939 37.9211C176.384 37.8903 176.014 37.6745 175.366 37.8286ZM176.569 37.0271C176.846 37.058 180.238 37.5512 179.837 36.5647C178.758 36.8113 177.555 36.1948 176.908 36.6572C177.247 36.7497 177.74 36.5956 177.925 36.9346C177.525 36.9346 176.816 36.7497 176.569 37.0271ZM177.617 36.0407C178.326 35.9174 179.529 36.2873 180.299 36.1332C180.7 36.0407 181.132 35.8866 181.193 35.5783C181.255 35.1159 180.608 35.1159 180.207 35.1467C179.559 35.1776 178.542 35.0234 178.234 35.3933C178.511 35.7633 179.282 35.3625 179.59 35.7016C178.881 35.9174 177.895 35.3625 177.617 36.0407ZM178.943 34.7768C179.837 34.9001 183.043 34.5302 181.471 33.5438C181.039 33.7904 179.652 33.4513 179.652 34.1603C180.022 34.1603 180.484 34.0062 180.669 34.2528C180.114 34.3761 179.189 34.1911 178.943 34.7768ZM180.238 33.3588C181.101 33.0197 182.735 33.143 183.228 32.3107C182.797 31.8792 181.718 31.8483 181.286 32.434C181.625 32.434 182.149 32.1258 182.334 32.3416C181.502 32.6806 180.454 32.619 180.238 33.3588ZM182.612 31.6017C182.951 31.7867 183.413 31.6017 183.814 31.4168C184.369 31.1702 184.431 30.5536 183.722 30.9544C183.382 31.1393 183.013 31.4476 182.612 31.6017ZM184.4 30.4303C184.955 30.3379 185.633 30.3687 186.126 30.1529C186.866 29.8138 186.558 29.4747 185.911 29.3514C185.51 29.2589 185.047 29.3206 185.017 29.7213C185.386 29.7213 185.972 29.3514 186.096 29.7213C185.602 29.7213 184.832 29.9063 184.4 30.0912C184.462 30.2454 184.492 30.3379 184.4 30.4303ZM165.747 49.5734C166.795 49.9433 167.505 49.5734 166.487 48.6178C165.932 48.0937 165.069 47.8779 164.452 47.5697C164.452 47.7546 164.421 47.9088 164.36 48.0012C164.699 48.3403 165.316 48.5561 165.501 48.8952C165.069 48.7102 164.514 48.3711 164.206 48.1862C164.113 48.3095 163.959 48.3403 163.805 48.3711C164.113 48.5561 164.391 48.7719 164.668 48.9877C164.946 49.111 165.223 49.2651 165.439 49.4501C165.531 49.5117 165.624 49.5425 165.747 49.5734ZM167.535 48.4636C167.998 48.5561 168.645 48.4636 168.553 48.0012C168.46 47.4464 166.734 46.984 166.333 46.7374C166.364 46.9223 166.333 47.1381 166.21 47.2614C166.518 47.3539 167.042 47.6313 167.104 47.8779C166.703 47.693 166.456 47.4772 166.025 47.4155C165.871 47.4772 165.501 47.4772 165.007 47.4464C165.655 47.5697 166.765 48.2787 167.535 48.4636ZM169.2 47.3539C170.156 47.6313 171.667 47.1381 169.909 46.275C169.385 46.0284 168.769 45.9359 168.214 45.7201C168.214 45.9051 168.214 46.1208 168.152 46.275C168.615 46.4291 169.046 46.6141 169.416 46.8915C168.892 46.6449 168.522 46.5216 168.029 46.4291C167.72 46.4907 167.227 46.5832 166.672 46.5216C167.597 46.6449 168.306 47.1073 169.2 47.3539ZM168.615 45.381C169.447 45.6584 170.341 46.3058 171.328 46.3983C172.468 46.5216 172.715 46.1825 171.513 45.7509C170.834 45.5351 169.971 45.2885 169.57 45.0419C169.262 45.2577 168.984 45.3502 168.615 45.381ZM169.57 44.7953C170.588 45.1961 171.728 45.6584 172.962 45.8126C173.517 45.8742 174.811 45.9975 174.534 45.0727C173.609 44.8878 172.684 44.3329 171.883 44.1788C171.698 44.3021 171.266 44.3637 171.081 44.3637C171.451 44.857 172.499 44.7028 172.777 45.0727C171.482 44.9803 170.495 44.3946 169.385 44.0555C169.447 44.2713 169.539 44.5795 169.57 44.7953ZM172.006 44.0247C172.9 44.2096 173.979 44.7028 174.935 44.7028C176.045 44.7028 176.97 44.2096 175.521 43.5931C174.596 43.2232 173.486 43.1615 172.561 42.7916C172.684 43.069 172.53 43.254 172.438 43.3465C173.116 43.5623 174.164 43.5931 174.627 43.9014C173.794 43.9322 172.962 43.6239 172.222 43.4698C172.098 43.5314 171.944 43.5314 171.759 43.5931C171.913 43.6547 171.975 43.8397 172.006 44.0247ZM174.041 42.2367C174.842 42.5142 175.736 42.6375 176.507 42.9766C175.582 42.8841 174.811 42.6375 173.979 42.4217C173.917 42.5758 173.732 42.6991 173.517 42.7916C174.503 42.8224 175.336 43.3157 176.353 43.3157C177.71 43.2848 177.555 43.069 176.97 42.3909C175.86 42.4217 174.966 41.9593 173.948 41.836C174.01 41.8977 174.133 42.1134 174.041 42.2367ZM175.336 41.6819C176.137 41.8977 177.309 42.2059 178.357 41.9901C179.899 41.7127 179.374 41.1578 178.635 40.7571C177.895 40.9112 177 40.8187 176.538 40.6954C176.322 40.7879 176.137 40.8496 175.767 40.9112C175.86 40.942 175.921 41.0962 175.86 41.1887C176.6 41.2195 177.401 41.2811 178.11 41.4044C177.463 41.5586 176.415 41.4044 175.829 41.3428C175.675 41.4661 175.551 41.5894 175.336 41.6819ZM178.141 39.7707C178.665 39.7398 179.22 39.6473 179.621 39.7707C178.696 39.9864 177.956 39.8631 177.031 40.0789C177.062 40.2022 176.939 40.4488 176.816 40.5105C177.648 40.4797 178.789 40.4488 179.529 40.2639C180.669 39.9556 180.916 39.1541 179.529 39.0925C178.974 39.0617 178.326 39.185 177.802 39.0925C177.71 39.4007 177.185 39.6165 176.908 39.5857C177.062 40.0173 177.679 39.8015 178.141 39.7707ZM177.864 38.7842C178.912 38.7842 180.577 38.8459 181.718 38.3835C182.643 38.0136 182.581 37.767 181.625 37.5512C180.793 37.3662 179.806 37.4279 179.004 37.6436C179.048 37.7056 179.079 37.7758 179.095 37.85C179.111 37.9241 179.112 38.0008 179.097 38.0752C179.683 37.8594 180.423 37.7978 181.039 37.9519C180.176 38.0752 179.683 38.0444 179.066 38.2293C178.82 38.4451 178.203 38.6301 177.864 38.7842ZM180.176 37.1504C180.916 37.1196 182.118 37.0888 182.92 36.7497C183.629 36.4414 183.907 36.0407 183.013 35.8866C182.581 35.7941 182.118 35.7324 181.687 35.8557C181.625 36.0099 181.286 36.2565 180.978 36.349C181.625 36.3181 182.211 36.3798 182.828 36.3798C182.057 36.5956 181.039 36.5647 180.299 36.5031C180.515 36.7497 180.361 36.9655 180.176 37.1504ZM181.718 35.5783C182.458 35.5475 183.475 35.4858 184.184 35.2084C184.986 34.9001 185.232 34.2528 184.184 34.1295C183.629 34.0678 182.92 34.2528 182.303 34.1911C182.211 34.4377 182.057 34.6227 181.841 34.7768C182.519 34.7768 183.321 34.561 183.845 34.7768C183.198 34.9618 181.964 34.9618 181.378 35.1159C181.533 35.1776 181.687 35.3625 181.718 35.5783ZM182.797 33.1739C183.691 33.2972 185.017 32.7731 185.941 32.9889C184.492 33.4205 183.105 33.3896 182.057 33.4513C182.149 33.5746 182.242 33.6979 182.303 33.8212C183.167 33.7287 184.277 33.7596 185.232 33.5438C186.558 33.2663 186.651 32.619 185.202 32.434C184.77 32.3724 184.246 32.4032 183.722 32.4649C183.506 32.7115 183.136 32.9581 182.797 33.1739ZM183.413 31.8175C183.475 32.3416 185.171 32.0025 185.541 31.8792C186.466 31.6326 186.065 31.2626 185.417 31.1702L184.585 31.1085C184.616 31.2626 184.585 31.3551 184.523 31.4168C184.862 31.3859 185.171 31.3551 185.386 31.5401C184.832 31.6634 184.061 31.5401 183.413 31.8175ZM186.959 33.2663C186.527 33.6363 185.818 33.9445 185.109 34.0678C185.695 34.6535 186.651 33.9445 187.668 34.0678C187.391 34.0986 187.113 34.2836 186.743 34.3761C186.219 34.4994 185.386 34.3761 185.386 34.9001C185.972 34.8693 187.113 34.7768 187.884 34.4377C189.333 33.7904 188.13 33.2663 186.959 33.2663ZM186.959 35.3625C186.065 35.0543 184.893 35.27 183.999 35.7941C184.893 36.0715 186.157 35.7941 186.99 36.164C186.096 36.1023 184.862 36.1948 184.122 36.1023C184.215 36.2873 184.061 36.4106 184.061 36.4723C184.893 36.6264 186.065 36.7189 186.99 36.4106C187.945 36.1023 187.945 35.6708 186.959 35.3625ZM186.065 38.3218C187.267 38.1985 188.377 37.4895 186.373 36.9655C185.479 37.0271 184.4 36.9038 183.937 36.6572C183.598 36.873 183.105 37.1813 182.55 37.3662C183.629 37.582 185.294 37.397 186.527 37.6745C185.294 37.7053 183.999 37.7978 182.858 37.6745C182.92 37.8594 182.858 38.0752 182.797 38.1677C183.876 38.2293 184.862 38.4451 186.065 38.3218ZM185.571 39.9864C186.342 39.5857 186.342 39.0925 185.448 38.815C184.616 38.5376 183.506 38.6917 182.673 38.4143C182.365 38.8459 181.348 39 180.731 39C181.748 39.6165 183.475 39.1541 184.708 39.4007C183.567 39.6473 182.273 39.4932 181.132 39.4932C181.163 39.709 181.132 39.8323 181.039 39.9864C182.118 40.233 184.307 40.6646 185.571 39.9864ZM183.876 42.021C184.955 41.8052 184.924 41.4044 183.968 40.8804C183.228 40.4797 181.687 40.2639 180.854 40.2947C180.577 40.4488 180.145 40.603 179.652 40.6646C180.916 41.0345 182.488 40.942 183.66 41.4661C182.273 41.3736 180.762 41.0654 179.529 40.9729C179.683 41.127 179.868 41.2811 179.929 41.5277C181.163 41.6202 182.519 42.2676 183.876 42.021ZM183.105 43.6239C184.092 43.4698 183.907 42.6991 182.766 42.4525C182.118 42.2984 180.7 41.7435 179.837 41.836C179.59 42.021 179.189 42.1751 179.035 42.2367C179.837 42.4217 181.255 42.4525 181.748 42.8841C180.577 42.8841 179.683 42.4525 178.573 42.36C178.234 42.4217 177.895 42.4217 177.401 42.3909C177.617 42.4525 177.771 42.5758 177.956 42.7916C179.344 43.2232 181.409 43.9014 183.105 43.6239ZM181.101 45.2269C182.088 45.1344 182.519 44.8878 181.502 44.148C180.577 43.439 178.974 43.5314 177.925 43.0382C177.771 43.3157 177.494 43.5006 177.185 43.6547C178.357 43.9938 179.991 44.0863 180.854 44.6104L178.511 44.148C177.71 43.9938 176.97 43.6856 176.23 43.7472C176.538 43.9322 176.692 44.1171 176.631 44.4871C178.018 44.7645 179.467 45.3502 181.101 45.2269ZM180.238 45.7817C179.189 45.0727 177.71 45.1961 176.569 44.6412C176.23 44.8261 175.829 44.9494 175.521 45.0111C176.754 45.4427 178.265 45.7817 179.313 46.2133C176.97 45.9667 175.027 45.0111 174.873 45.1344C174.935 45.2577 174.935 45.4735 174.935 45.5968C176.569 45.9667 178.172 46.984 180.084 46.7682C181.07 46.6449 181.07 46.3674 180.238 45.7817ZM177.586 48.1245C178.419 48.0012 178.881 47.508 177.895 46.8915C177.062 46.3983 175.736 46.2133 174.812 45.8434C174.627 46.0592 174.133 46.1208 173.856 46.1517C174.842 46.5832 176.23 46.8298 177 47.3231C175.459 47.0764 174.195 46.3983 172.715 46.0284C172.807 46.2441 172.715 46.4291 172.53 46.5216C174.041 46.9531 175.736 48.3711 177.586 48.1245ZM174.966 49.0801C176.631 49.1726 176.137 48.3095 175.027 48.0012C174.041 47.7238 173.27 47.0764 172.253 46.799C171.913 46.8607 171.451 46.8298 171.05 46.7374C171.112 46.8607 171.173 47.0148 171.204 47.1381C172.345 47.508 173.732 47.9396 174.565 48.5253C173.702 48.2478 172.037 47.6005 171.173 47.3231C171.05 47.4772 170.927 47.5697 170.742 47.6313C171.358 48.3403 173.979 49.0493 174.966 49.0801ZM172.684 50.4057C173.794 50.4365 174.195 50.0358 173.27 49.2034C172.53 48.5561 171.204 48.3711 170.434 47.7854C169.848 47.9088 169.2 47.7854 168.799 47.6005C168.923 47.7854 169.046 47.9396 169.046 48.3095C170.033 48.6794 171.143 48.9568 171.975 49.5425C171.42 49.4192 170.865 49.2034 170.31 48.9877C169.755 48.8027 169.2 48.4328 168.676 48.6794C168.954 49.1418 169.416 49.3268 170.064 49.5734C170.834 49.8816 171.821 50.3748 172.684 50.4057ZM170.773 51.3305C171.883 51.2688 171.605 50.7756 170.834 50.2515C169.94 49.6658 168.769 49.5734 167.998 48.8027C167.72 48.8644 167.443 48.7102 167.196 48.7102C167.35 48.8644 167.443 49.0801 167.474 49.2959C168.121 49.9125 169.262 50.0974 169.971 50.6831C168.923 50.6831 168.368 49.9741 167.505 49.6658C167.443 49.8816 167.227 50.0358 167.011 50.1282C168.183 50.4365 169.447 51.3921 170.773 51.3305ZM168.214 52.7485C168.645 52.9334 170.064 52.6252 169.046 51.5462C168.676 51.1455 167.289 50.6831 166.734 50.2515C166.518 50.2824 166.241 50.1899 165.932 50.0358C165.994 50.1591 166.056 50.3132 166.056 50.4365V50.4981C166.641 51.053 167.474 51.4229 168.09 51.8545C167.339 51.6156 166.639 51.2393 166.025 50.7448C165.994 50.8681 165.963 50.9914 165.871 51.1455C166.61 51.7928 167.628 52.5327 168.214 52.7485ZM167.227 52.5635C166.765 52.0703 166.364 51.6695 165.84 51.3613C165.593 51.7004 165.223 51.8545 164.822 51.8853C165.408 52.2861 166.148 52.4402 166.672 52.9026C165.747 52.7176 165.038 52.1319 164.329 51.8545H164.267C164.514 52.7176 165.963 53.4575 166.734 53.6732C168.029 54.074 167.936 53.3342 167.227 52.5635ZM165.192 53.5191C164.822 52.7485 164.082 52.4402 163.743 51.9161C163.342 51.9778 162.88 51.5462 162.664 51.3613C162.726 51.5462 162.757 51.7312 162.757 51.8853C163.25 52.4402 163.959 52.8718 164.267 53.4575C163.743 53.0259 163.188 52.656 162.695 52.1628C162.633 52.3169 162.541 52.4402 162.448 52.5943C162.911 53.1184 163.435 53.7349 163.99 54.1048C164.853 54.7213 165.809 54.783 165.192 53.5191ZM163.157 54.2589C162.88 53.365 161.986 52.7485 161.554 52.2244C161.523 52.1936 161.493 52.1936 161.462 52.1628C161.153 52.3169 160.938 52.3477 160.598 52.3477C160.968 53.2108 161.493 54.2898 162.109 54.8446C162.849 55.492 163.558 55.492 163.157 54.2589ZM161.338 52.471L162.51 54.4131C161.955 53.9507 161.585 53.18 161.123 52.5635C161.061 52.4094 161.369 52.6868 161.338 52.471ZM161.77 55.2145C161.123 54.1665 160.321 53.6732 160.198 52.3477C159.766 52.2552 159.026 51.6387 158.502 51.3613C159.119 52.2552 159.889 53.9815 160.259 54.9988C161.277 56.3243 162.849 56.9716 161.77 55.2145ZM161.03 54.6597C160.537 54.5672 159.889 53.6116 159.735 52.9642L159.92 52.9334C160.136 53.7657 160.598 54.1665 161.03 54.6597Z" fill="#F88D2B"/>
<path d="M150.794 78.6732H150.239C150.208 78.6732 150.208 78.6732 150.208 78.7041V79.5364C150.208 79.5672 150.208 79.5672 150.239 79.5672H150.794C150.948 79.5672 151.071 79.5364 151.133 79.4439C151.225 79.3514 151.256 79.2589 151.256 79.1356C151.256 79.0123 151.225 78.889 151.133 78.8274C151.04 78.7349 150.948 78.6732 150.794 78.6732ZM153.63 78.9507L153.26 80.0296H154.031L153.661 78.9507H153.63ZM155.819 66.2811V75.344C156.59 74.7275 157.946 74.3884 159.611 74.3884C160.783 74.3884 162.108 74.5734 163.095 75.0049V65.8496C163.095 65.8496 161.924 65.1714 159.796 65.1714C157.021 65.2022 155.819 66.2811 155.819 66.2811ZM161.985 72.8779C161.954 72.9704 161.862 73.0321 161.739 73.0012C159.796 72.4464 157.885 72.7546 157.021 73.3095C156.991 73.3403 156.96 73.3403 156.929 73.3403C156.897 73.3409 156.866 73.3325 156.839 73.3162C156.811 73.2998 156.789 73.2762 156.775 73.2478C156.713 73.1554 156.744 73.0321 156.836 72.9704C157.946 72.2614 160.012 72.1073 161.862 72.6313C161.954 72.693 162.016 72.7854 161.985 72.8779ZM161.985 71.3983C161.954 71.4907 161.862 71.5524 161.739 71.5216C159.95 71.0284 157.885 71.275 157.021 71.8298C156.991 71.8607 156.96 71.8607 156.929 71.8607C156.897 71.8612 156.866 71.8529 156.839 71.8365C156.811 71.8202 156.789 71.7965 156.775 71.7682C156.713 71.6757 156.744 71.5524 156.836 71.4908C157.731 70.9051 159.92 70.5968 161.862 71.1517C161.954 71.1825 162.016 71.3058 161.985 71.3983ZM161.985 69.9186C161.954 70.0111 161.862 70.0727 161.739 70.0419C159.796 69.4871 157.885 69.7953 157.021 70.3502C156.991 70.381 156.96 70.381 156.929 70.381C156.897 70.3816 156.866 70.3732 156.839 70.3569C156.811 70.3405 156.789 70.3168 156.775 70.2885C156.713 70.1961 156.744 70.0727 156.836 70.0111C157.946 69.3021 160.012 69.148 161.862 69.672C161.954 69.7337 162.016 69.8261 161.985 69.9186ZM161.985 68.439C161.954 68.5314 161.862 68.5931 161.739 68.5623C159.796 68.0074 157.885 68.3157 157.021 68.8705C156.991 68.9014 156.96 68.9014 156.929 68.9014C156.897 68.9019 156.866 68.8936 156.839 68.8772C156.811 68.8609 156.789 68.8372 156.775 68.8089C156.713 68.7164 156.744 68.5931 156.836 68.5314C157.946 67.8224 160.012 67.6683 161.862 68.1924C161.954 68.2232 162.016 68.3465 161.985 68.439ZM161.985 66.9593C161.954 67.0518 161.862 67.1134 161.739 67.0826C159.796 66.5277 157.885 66.836 157.021 67.3909C156.991 67.4217 156.96 67.4217 156.929 67.4217C156.897 67.4223 156.866 67.4139 156.839 67.3976C156.811 67.3812 156.789 67.3575 156.775 67.3292C156.713 67.2367 156.744 67.1134 156.836 67.0518C157.946 66.3428 160.012 66.1887 161.862 66.7127C161.954 66.7435 162.016 66.836 161.985 66.9593ZM166.024 70.7201L165.87 69.2713C165.716 68.069 165.531 66.5277 165.531 65.0481C165.531 64.709 165.531 64.3699 165.562 64.0616C161.893 63.5993 158.008 62.3662 155.572 61.164C153.137 62.3354 149.252 63.5993 145.583 64.0616C145.614 64.3699 145.614 64.709 145.614 65.0481C145.614 66.5277 145.429 68.0382 145.275 69.2713L145.121 70.7201L145.09 71.5524C145.091 73.7111 145.553 75.8447 146.446 77.8101C148.327 81.9716 152.304 85.2392 155.542 87.3354C158.81 85.2084 162.756 81.9716 164.637 77.8101C165.531 75.8372 165.993 73.7411 165.993 71.5524L166.024 70.7201ZM151.688 79.4747C151.657 79.598 151.564 79.6905 151.503 79.7522C151.41 79.8138 151.318 79.8755 151.194 79.9371C151.071 79.9988 150.948 79.9988 150.824 79.9988H150.239C150.208 79.9988 150.208 79.9988 150.208 80.0296V81.0469C150.208 81.0777 150.208 81.0777 150.177 81.0777H149.776C149.745 81.0777 149.745 81.0777 149.745 81.0469V78.3033C149.745 78.2725 149.745 78.2725 149.776 78.2725H150.824C150.948 78.2725 151.071 78.3033 151.194 78.3342C151.318 78.365 151.41 78.4266 151.503 78.5191C151.595 78.5808 151.657 78.6732 151.688 78.7965C151.718 78.9198 151.749 79.0123 151.749 79.1665C151.749 79.2589 151.718 79.3822 151.688 79.4747ZM154.832 81.0777H154.432C154.401 81.0777 154.401 81.0777 154.37 81.0469L154.185 80.492H153.106L152.921 81.0469C152.921 81.0777 152.89 81.0777 152.859 81.0777H152.458C152.428 81.0777 152.428 81.0777 152.428 81.0469L153.383 78.3033C153.383 78.2725 153.414 78.2725 153.445 78.2725H153.815C153.846 78.2725 153.846 78.2725 153.877 78.3033L154.832 81.0469C154.863 81.0469 154.863 81.0777 154.832 81.0777ZM158.193 80.5845C158.162 80.7078 158.07 80.8002 157.977 80.8619C157.885 80.9544 157.761 80.9852 157.638 81.0469C157.515 81.0777 157.361 81.1085 157.176 81.1085C157.083 81.1085 156.96 81.1085 156.867 81.0777C156.775 81.0469 156.682 81.0469 156.59 80.9852C156.497 80.9544 156.405 80.9235 156.343 80.8619C156.281 80.8002 156.189 80.7694 156.158 80.7078C156.127 80.6769 156.127 80.6769 156.158 80.6461L156.405 80.3379C156.436 80.307 156.436 80.307 156.466 80.3379C156.497 80.3687 156.559 80.3995 156.621 80.4612L156.806 80.5536C156.867 80.5845 156.929 80.6153 157.021 80.6153C157.083 80.6461 157.176 80.6461 157.237 80.6461C157.391 80.6461 157.546 80.6153 157.638 80.5228C157.731 80.4612 157.792 80.3379 157.792 80.2145C157.792 80.1221 157.761 80.0296 157.669 79.9679C157.607 79.9063 157.453 79.8446 157.268 79.8138L157.114 79.783C156.836 79.7522 156.621 79.6597 156.466 79.5364C156.312 79.4131 156.251 79.2281 156.251 78.9815C156.251 78.8582 156.281 78.7349 156.312 78.6424C156.343 78.5499 156.436 78.4575 156.497 78.365C156.59 78.3033 156.682 78.2417 156.806 78.18C156.929 78.1492 157.052 78.1184 157.206 78.1184C157.391 78.1184 157.546 78.1492 157.7 78.2108C157.854 78.2725 158.008 78.3342 158.1 78.4266C158.131 78.4575 158.131 78.4575 158.1 78.4883L157.915 78.7965C157.885 78.8274 157.885 78.8274 157.854 78.7965C157.731 78.7349 157.638 78.6732 157.515 78.6424C157.391 78.6116 157.299 78.5808 157.176 78.5808C157.021 78.5808 156.929 78.6116 156.836 78.6732C156.775 78.7349 156.713 78.8274 156.713 78.9507C156.713 79.0432 156.744 79.1356 156.836 79.1973C156.957 79.2775 157.094 79.3301 157.237 79.3514L157.391 79.3822C157.669 79.4131 157.885 79.5055 158.008 79.6288C158.162 79.7522 158.224 79.9371 158.224 80.1837C158.255 80.3687 158.224 80.492 158.193 80.5845ZM161.677 80.5845C161.646 80.7078 161.554 80.8002 161.461 80.8619C161.369 80.9544 161.245 80.9852 161.122 81.0469C160.999 81.0777 160.844 81.1085 160.659 81.1085C160.567 81.1085 160.444 81.1085 160.351 81.0777C160.259 81.0469 160.166 81.0469 160.074 80.9852C159.981 80.9544 159.889 80.9235 159.827 80.8619C159.765 80.8311 159.673 80.7694 159.642 80.7078C159.611 80.6769 159.611 80.6769 159.642 80.6461L159.889 80.3379C159.919 80.307 159.919 80.307 159.95 80.3379C159.981 80.3687 160.043 80.3995 160.104 80.4612L160.289 80.5536C160.351 80.5845 160.413 80.6153 160.505 80.6153C160.567 80.6461 160.659 80.6461 160.721 80.6461C160.875 80.6461 161.029 80.6153 161.122 80.5228C161.214 80.4612 161.276 80.3379 161.276 80.2145C161.276 80.1221 161.245 80.0296 161.153 79.9679C161.091 79.9063 160.937 79.8446 160.752 79.8138L160.598 79.783C160.32 79.7522 160.104 79.6597 159.95 79.5364C159.796 79.4131 159.735 79.2281 159.735 78.9815C159.735 78.8582 159.765 78.7349 159.796 78.6424C159.827 78.5499 159.92 78.4575 159.981 78.365C160.074 78.3033 160.166 78.2417 160.289 78.18C160.413 78.1492 160.536 78.1184 160.69 78.1184C160.875 78.1184 161.029 78.1492 161.184 78.2108C161.338 78.2725 161.492 78.3342 161.584 78.4266C161.615 78.4575 161.615 78.4575 161.584 78.4883L161.399 78.7965C161.369 78.8274 161.369 78.8274 161.338 78.7965C161.214 78.7349 161.122 78.6732 160.999 78.6424C160.875 78.6116 160.783 78.5808 160.659 78.5808C160.505 78.5808 160.413 78.6116 160.32 78.6732C160.259 78.7349 160.197 78.8274 160.197 78.9507C160.197 79.0432 160.228 79.1356 160.32 79.1973C160.441 79.2775 160.578 79.3301 160.721 79.3514L160.875 79.3822C161.153 79.4131 161.369 79.5055 161.492 79.6288C161.646 79.7522 161.708 79.9371 161.708 80.1837C161.739 80.3687 161.708 80.492 161.677 80.5845ZM164.205 75.8989C164.205 76.2072 163.835 76.3305 163.588 76.3305H147.618C147.248 76.3305 146.971 76.053 146.971 75.8681V66.0345C146.971 65.942 147.001 65.8804 147.063 65.8187C147.988 65.0789 149.684 64.6165 151.533 64.6165C153.322 64.6165 154.802 65.0173 155.542 65.7263C156.497 65.0173 158.039 64.6165 159.765 64.6165C161.554 64.6165 163.157 65.0789 164.082 65.8187C164.143 65.8804 164.174 65.942 164.174 66.0345V75.8989H164.205ZM151.626 65.2022C149.314 65.2022 148.111 65.8804 148.111 65.8804V75.0049C149.036 74.5734 150.269 74.2959 151.564 74.2959C153.198 74.2959 154.524 74.6658 155.295 75.344V66.2811C155.295 66.1887 154.277 65.2022 151.626 65.2022ZM149.345 66.7127C151.164 66.2195 153.198 66.3428 154.308 67.0518C154.401 67.1134 154.432 67.2367 154.37 67.3292C154.356 67.3575 154.333 67.3812 154.306 67.3976C154.279 67.4139 154.248 67.4223 154.216 67.4217C154.185 67.4217 154.154 67.4217 154.123 67.3909C153.291 66.8668 151.472 66.5277 149.468 67.0826C149.375 67.1134 149.252 67.0518 149.221 66.9593C149.19 66.836 149.252 66.7435 149.345 66.7127ZM149.345 68.2232C151.194 67.6991 153.229 67.8533 154.308 68.5314C154.401 68.5931 154.432 68.7164 154.37 68.8089C154.356 68.8372 154.333 68.8609 154.306 68.8772C154.279 68.8936 154.248 68.9019 154.216 68.9014C154.185 68.9014 154.154 68.9014 154.123 68.8705C153.322 68.3465 151.503 68.0382 149.468 68.5931C149.375 68.6239 149.252 68.5623 149.221 68.4698C149.19 68.3465 149.252 68.254 149.345 68.2232ZM149.345 69.672C151.194 69.148 153.26 69.2713 154.339 69.9803C154.432 70.0419 154.462 70.1652 154.401 70.2577C154.386 70.286 154.364 70.3097 154.337 70.326C154.31 70.3424 154.278 70.3508 154.247 70.3502C154.216 70.3502 154.185 70.3502 154.154 70.3194C153.322 69.7953 151.533 69.4871 149.468 70.0419C149.375 70.0727 149.252 70.0111 149.221 69.9186C149.19 69.8261 149.252 69.7028 149.345 69.672ZM154.432 73.2478C154.417 73.2762 154.395 73.2998 154.368 73.3162C154.341 73.3325 154.309 73.3409 154.277 73.3403C154.247 73.3403 154.216 73.3403 154.185 73.3095C153.229 72.693 151.04 72.4772 149.499 73.0937C149.406 73.1245 149.283 73.0937 149.252 73.0012C149.221 72.9088 149.252 72.7854 149.345 72.7546C151.04 72.0764 153.353 72.3539 154.37 73.0012C154.462 73.0321 154.462 73.1554 154.432 73.2478ZM154.432 71.7374C154.417 71.7657 154.395 71.7894 154.368 71.8057C154.341 71.8221 154.309 71.8304 154.277 71.8298C154.247 71.8298 154.216 71.8298 154.185 71.799C153.137 71.1208 151.349 71.0284 149.468 71.5524C149.375 71.5832 149.252 71.5216 149.221 71.4291C149.19 71.3366 149.252 71.2133 149.345 71.1825C151.349 70.6276 153.229 70.7201 154.37 71.4599C154.462 71.5524 154.462 71.6449 154.432 71.7374Z" fill="#1C355E"/>
</g>
<defs>
<clipPath id="clip0_61_16">
<rect width="200" height="75" fill="white" transform="translate(0 14)"/>
</clipPath>
</defs>
</svg>
